<?xml version="1.0" encoding="utf-8"?>
<svg version="1.1" xmlns:xlink="http://www.w3.org/1999/xlink" width="15px" height="13px" xmlns="http://www.w3.org/2000/svg">
  <g transform="matrix(1 0 0 1 -380 -783 )">
    <path d="M 4.06494140625 3.62020383693046  C 4.18701171875 3.49290567545963  4.248046875 3.32274180655476  4.248046875 3.10971223021583  C 4.248046875 2.8966826538769  4.18701171875 2.72521982414069  4.06494140625 2.59532374100719  C 3.94287109375 2.4654276578737  3.78173828125 2.40047961630695  3.58154296875 2.40047961630695  C 3.37158203125 2.40047961630695  3.18603515625 2.46672661870504  3.02490234375 2.5992206235012  C 2.86376953125 2.73171462829736  2.783203125 2.90187849720224  2.783203125 3.10971223021583  C 2.783203125 3.31235011990408  2.86376953125 3.47991606714628  3.02490234375 3.61241007194245  C 3.18603515625 3.74490407673861  3.37158203125 3.81115107913669  3.58154296875 3.81115107913669  C 3.78173828125 3.81115107913669  3.94287109375 3.74750199840128  4.06494140625 3.62020383693046  Z M 9.503173828125 7.45863309352518  C 9.627685546875 7.3443245403677  9.68994140625 7.21183053557154  9.68994140625 7.06115107913669  C 9.68994140625 6.91566746602718  9.627685546875 6.78577138289369  9.503173828125 6.67146282973621  C 9.378662109375 6.55715427657874  9.21875 6.5  9.0234375 6.5  C 8.8916015625 6.5  8.770751953125 6.55845323741007  8.660888671875 6.67535971223022  C 8.551025390625 6.79226618705036  8.49609375 6.92086330935252  8.49609375 7.06115107913669  C 8.49609375 7.2066346922462  8.551025390625 7.33782973621103  8.660888671875 7.45473621103118  C 8.770751953125 7.57164268585132  8.8916015625 7.63009592326139  9.0234375 7.63009592326139  C 9.21875 7.63009592326139  9.378662109375 7.57294164668265  9.503173828125 7.45863309352518  Z M 7.781982421875 3.62020383693046  C 7.901611328125 3.49290567545963  7.96142578125 3.32274180655476  7.96142578125 3.10971223021583  C 7.96142578125 2.8966826538769  7.901611328125 2.72521982414069  7.781982421875 2.59532374100719  C 7.662353515625 2.4654276578737  7.50244140625 2.40047961630695  7.30224609375 2.40047961630695  C 7.09228515625 2.40047961630695  6.90673828125 2.46672661870504  6.74560546875 2.5992206235012  C 6.58447265625 2.73171462829736  6.50390625 2.90187849720224  6.50390625 3.10971223021583  C 6.50390625 3.31235011990408  6.58447265625 3.47991606714628  6.74560546875 3.61241007194245  C 6.90673828125 3.74490407673861  7.09228515625 3.81115107913669  7.30224609375 3.81115107913669  C 7.50244140625 3.81115107913669  7.662353515625 3.74750199840128  7.781982421875 3.62020383693046  Z M 12.421875 7.45863309352518  C 12.548828125 7.3443245403677  12.6123046875 7.21183053557154  12.6123046875 7.06115107913669  C 12.6123046875 6.91566746602718  12.548828125 6.78577138289369  12.421875 6.67146282973621  C 12.294921875 6.55715427657874  12.13623046875 6.5  11.94580078125 6.5  C 11.81396484375 6.5  11.693115234375 6.55845323741007  11.583251953125 6.67535971223022  C 11.473388671875 6.79226618705036  11.41845703125 6.92086330935252  11.41845703125 7.06115107913669  C 11.41845703125 7.2066346922462  11.473388671875 7.33782973621103  11.583251953125 7.45473621103118  C 11.693115234375 7.57164268585132  11.81396484375 7.63009592326139  11.94580078125 7.63009592326139  C 12.13623046875 7.63009592326139  12.294921875 7.57294164668265  12.421875 7.45863309352518  Z M 9.664306640625 1.93675059952038  C 10.179443359375 2.54206634692246  10.5126953125 3.21882494004796  10.6640625 3.96702637889688  C 10.5126953125 3.94624300559552  10.341796875 3.93585131894484  10.1513671875 3.93585131894484  C 9.326171875 3.93585131894484  8.56689453125 4.13589128697042  7.87353515625 4.53597122302158  C 7.18017578125 4.93605115907274  6.634521484375 5.47771782573941  6.236572265625 6.16097122302158  C 5.838623046875 6.84422462030376  5.6396484375 7.59112709832134  5.6396484375 8.40167865707434  C 5.6396484375 8.80695443645084  5.69580078125 9.20183852917666  5.80810546875 9.5863309352518  C 5.63720703125 9.60191846522782  5.47119140625 9.60971223021583  5.31005859375 9.60971223021583  C 5.18310546875 9.60971223021583  5.06103515625 9.60581534772182  4.94384765625 9.59802158273381  C 4.82666015625 9.5902278177458  4.6923828125 9.57334132693845  4.541015625 9.54736211031175  C 4.3896484375 9.52138289368505  4.281005859375 9.50319744204636  4.215087890625 9.49280575539568  C 4.149169921875 9.482414068745  4.01611328125 9.45513589128697  3.81591796875 9.41097122302158  C 3.61572265625 9.36680655475619  3.49365234375 9.33952837729816  3.44970703125 9.32913669064748  L 1.5966796875 10.3189448441247  L 2.1240234375 8.61990407673861  C 0.7080078125 7.56514788169464  0 6.29216626698641  0 4.80095923261391  C 0 3.92286171063149  0.238037109375 3.11490807354117  0.714111328125 2.37709832134293  C 1.190185546875 1.63928856914468  1.834716796875 1.05865307753797  2.647705078125 0.635191846522782  C 3.460693359375 0.211730615507593  4.34814453125 0  5.31005859375 0  C 6.16943359375 0  6.981201171875 0.171462829736211  7.745361328125 0.514388489208633  C 8.509521484375 0.857314148681056  9.149169921875 1.33143485211831  9.664306640625 1.93675059952038  Z M 14.373779296875 6.28567146282974  C 14.791259765625 6.91696642685851  15 7.60151878497202  15 8.33932853717026  C 15 8.94724220623501  14.832763671875 9.52787769784173  14.498291015625 10.0812350119904  C 14.163818359375 10.6345923261391  13.7109375 11.1372901678657  13.1396484375 11.5893285371703  L 13.54248046875 13  L 12.0849609375 12.150479616307  C 11.3525390625 12.3427258193445  10.8203125 12.4388489208633  10.48828125 12.4388489208633  C 9.6630859375 12.4388489208633  8.90380859375 12.2556954436451  8.21044921875 11.8893884892086  C 7.51708984375 11.5230815347722  6.971435546875 11.0255795363709  6.573486328125 10.3968824940048  C 6.175537109375 9.76818545163869  5.9765625 9.08233413269384  5.9765625 8.33932853717026  C 5.9765625 7.59632294164668  6.175537109375 6.91047162270184  6.573486328125 6.28177458033573  C 6.971435546875 5.65307753796962  7.51708984375 5.15557553956835  8.21044921875 4.78926858513189  C 8.90380859375 4.42296163069544  9.6630859375 4.23980815347722  10.48828125 4.23980815347722  C 11.2744140625 4.23980815347722  12.01416015625 4.42296163069544  12.70751953125 4.78926858513189  C 13.40087890625 5.15557553956835  13.956298828125 5.65437649880096  14.373779296875 6.28567146282974  Z " fill-rule="nonzero" fill="#ffffff" stroke="none" transform="matrix(1 0 0 1 380 783 )" />
  </g>
</svg>