<?xml version="1.0" encoding="utf-8"?>
<svg version="1.1" xmlns:xlink="http://www.w3.org/1999/xlink" width="100px" height="30px" xmlns="http://www.w3.org/2000/svg">
  <g transform="matrix(1 0 0 1 -528 -943 )">
    <path d="M 529 951  A 7 7 0 0 1 536 944 L 620 944  A 7 7 0 0 1 627 951 L 627 965  A 7 7 0 0 1 620 972 L 536 972  A 7 7 0 0 1 529 965 L 529 951  Z " fill-rule="nonzero" fill="#ffffff" stroke="none" fill-opacity="0" />
    <path d="M 528.5 951  A 7.5 7.5 0 0 1 536 943.5 L 620 943.5  A 7.5 7.5 0 0 1 627.5 951 L 627.5 965  A 7.5 7.5 0 0 1 620 972.5 L 536 972.5  A 7.5 7.5 0 0 1 528.5 965 L 528.5 951  Z " stroke-width="1" stroke="#999999" fill="none" stroke-opacity="0.501960784313725" />
  </g>
</svg>