<?xml version="1.0" encoding="utf-8"?>
<svg version="1.1" xmlns:xlink="http://www.w3.org/1999/xlink" width="81px" height="30px" xmlns="http://www.w3.org/2000/svg">
  <g transform="matrix(1 0 0 1 -401 -346 )">
    <path d="M 402 354  A 7 7 0 0 1 409 347 L 474 347  A 7 7 0 0 1 481 354 L 481 368  A 7 7 0 0 1 474 375 L 409 375  A 7 7 0 0 1 402 368 L 402 354  Z " fill-rule="nonzero" fill="#ffffff" stroke="none" fill-opacity="0" />
    <path d="M 401.5 354  A 7.5 7.5 0 0 1 409 346.5 L 474 346.5  A 7.5 7.5 0 0 1 481.5 354 L 481.5 368  A 7.5 7.5 0 0 1 474 375.5 L 409 375.5  A 7.5 7.5 0 0 1 401.5 368 L 401.5 354  Z " stroke-width="1" stroke="#999999" fill="none" stroke-opacity="0.501960784313725" />
  </g>
</svg>