<?xml version="1.0" encoding="utf-8"?>
<svg version="1.1" xmlns:xlink="http://www.w3.org/1999/xlink" width="64px" height="30px" xmlns="http://www.w3.org/2000/svg">
  <g transform="matrix(1 0 0 1 -401 -308 )">
    <path d="M 402 316  A 7 7 0 0 1 409 309 L 457 309  A 7 7 0 0 1 464 316 L 464 330  A 7 7 0 0 1 457 337 L 409 337  A 7 7 0 0 1 402 330 L 402 316  Z " fill-rule="nonzero" fill="#ffffff" stroke="none" fill-opacity="0" />
    <path d="M 401.5 316  A 7.5 7.5 0 0 1 409 308.5 L 457 308.5  A 7.5 7.5 0 0 1 464.5 316 L 464.5 330  A 7.5 7.5 0 0 1 457 337.5 L 409 337.5  A 7.5 7.5 0 0 1 401.5 330 L 401.5 316  Z " stroke-width="1" stroke="#999999" fill="none" stroke-opacity="0.501960784313725" />
  </g>
</svg>