<?xml version="1.0" encoding="utf-8"?>
<svg version="1.1" xmlns:xlink="http://www.w3.org/1999/xlink" width="102px" height="30px" xmlns="http://www.w3.org/2000/svg">
  <g transform="matrix(1 0 0 1 -401 -586 )">
    <path d="M 402 594  A 7 7 0 0 1 409 587 L 495 587  A 7 7 0 0 1 502 594 L 502 608  A 7 7 0 0 1 495 615 L 409 615  A 7 7 0 0 1 402 608 L 402 594  Z " fill-rule="nonzero" fill="#ffffff" stroke="none" fill-opacity="0" />
    <path d="M 401.5 594  A 7.5 7.5 0 0 1 409 586.5 L 495 586.5  A 7.5 7.5 0 0 1 502.5 594 L 502.5 608  A 7.5 7.5 0 0 1 495 615.5 L 409 615.5  A 7.5 7.5 0 0 1 401.5 608 L 401.5 594  Z " stroke-width="1" stroke="#999999" fill="none" stroke-opacity="0.501960784313725" />
  </g>
</svg>