<?xml version="1.0" encoding="utf-8"?>
<svg version="1.1" xmlns:xlink="http://www.w3.org/1999/xlink" width="130px" height="30px" xmlns="http://www.w3.org/2000/svg">
  <g transform="matrix(1 0 0 1 -401 -510 )">
    <path d="M 402 518  A 7 7 0 0 1 409 511 L 523 511  A 7 7 0 0 1 530 518 L 530 532  A 7 7 0 0 1 523 539 L 409 539  A 7 7 0 0 1 402 532 L 402 518  Z " fill-rule="nonzero" fill="#0079fe" stroke="none" />
    <path d="M 401.5 518  A 7.5 7.5 0 0 1 409 510.5 L 523 510.5  A 7.5 7.5 0 0 1 530.5 518 L 530.5 532  A 7.5 7.5 0 0 1 523 539.5 L 409 539.5  A 7.5 7.5 0 0 1 401.5 532 L 401.5 518  Z " stroke-width="1" stroke="#999999" fill="none" stroke-opacity="0.501960784313725" />
  </g>
</svg>