<?xml version="1.0" encoding="utf-8"?>
<svg version="1.1" xmlns:xlink="http://www.w3.org/1999/xlink" width="49px" height="30px" xmlns="http://www.w3.org/2000/svg">
  <g transform="matrix(1 0 0 1 -475 -308 )">
    <path d="M 476 316  A 7 7 0 0 1 483 309 L 516 309  A 7 7 0 0 1 523 316 L 523 330  A 7 7 0 0 1 516 337 L 483 337  A 7 7 0 0 1 476 330 L 476 316  Z " fill-rule="nonzero" fill="#ffffff" stroke="none" fill-opacity="0" />
    <path d="M 475.5 316  A 7.5 7.5 0 0 1 483 308.5 L 516 308.5  A 7.5 7.5 0 0 1 523.5 316 L 523.5 330  A 7.5 7.5 0 0 1 516 337.5 L 483 337.5  A 7.5 7.5 0 0 1 475.5 330 L 475.5 316  Z " stroke-width="1" stroke="#999999" fill="none" stroke-opacity="0.501960784313725" />
  </g>
</svg>