<?xml version="1.0" encoding="utf-8"?>
<svg version="1.1" xmlns:xlink="http://www.w3.org/1999/xlink" width="155px" height="30px" xmlns="http://www.w3.org/2000/svg">
  <g transform="matrix(1 0 0 1 -541 -510 )">
    <path d="M 542 518  A 7 7 0 0 1 549 511 L 688 511  A 7 7 0 0 1 695 518 L 695 532  A 7 7 0 0 1 688 539 L 549 539  A 7 7 0 0 1 542 532 L 542 518  Z " fill-rule="nonzero" fill="#0079fe" stroke="none" />
    <path d="M 541.5 518  A 7.5 7.5 0 0 1 549 510.5 L 688 510.5  A 7.5 7.5 0 0 1 695.5 518 L 695.5 532  A 7.5 7.5 0 0 1 688 539.5 L 549 539.5  A 7.5 7.5 0 0 1 541.5 532 L 541.5 518  Z " stroke-width="1" stroke="#999999" fill="none" stroke-opacity="0.501960784313725" />
  </g>
</svg>