<?xml version="1.0" encoding="utf-8"?>
<svg version="1.1" xmlns:xlink="http://www.w3.org/1999/xlink" width="174px" height="30px" xmlns="http://www.w3.org/2000/svg">
  <g transform="matrix(1 0 0 1 -541 -308 )">
    <path d="M 542 316  A 7 7 0 0 1 549 309 L 707 309  A 7 7 0 0 1 714 316 L 714 330  A 7 7 0 0 1 707 337 L 549 337  A 7 7 0 0 1 542 330 L 542 316  Z " fill-rule="nonzero" fill="#ffffff" stroke="none" fill-opacity="0" />
    <path d="M 541.5 316  A 7.5 7.5 0 0 1 549 308.5 L 707 308.5  A 7.5 7.5 0 0 1 714.5 316 L 714.5 330  A 7.5 7.5 0 0 1 707 337.5 L 549 337.5  A 7.5 7.5 0 0 1 541.5 330 L 541.5 316  Z " stroke-width="1" stroke="#999999" fill="none" stroke-opacity="0.501960784313725" />
  </g>
</svg>