<?xml version="1.0" encoding="utf-8"?>
<svg version="1.1" xmlns:xlink="http://www.w3.org/1999/xlink" width="72px" height="30px" xmlns="http://www.w3.org/2000/svg">
  <g transform="matrix(1 0 0 1 -401 -2006 )">
    <path d="M 402 2014  A 7 7 0 0 1 409 2007 L 465 2007  A 7 7 0 0 1 472 2014 L 472 2028  A 7 7 0 0 1 465 2035 L 409 2035  A 7 7 0 0 1 402 2028 L 402 2014  Z " fill-rule="nonzero" fill="#ffffff" stroke="none" fill-opacity="0" />
    <path d="M 401.5 2014  A 7.5 7.5 0 0 1 409 2006.5 L 465 2006.5  A 7.5 7.5 0 0 1 472.5 2014 L 472.5 2028  A 7.5 7.5 0 0 1 465 2035.5 L 409 2035.5  A 7.5 7.5 0 0 1 401.5 2028 L 401.5 2014  Z " stroke-width="1" stroke="#999999" fill="none" stroke-opacity="0.501960784313725" />
  </g>
</svg>