<?xml version="1.0" encoding="utf-8"?>
<svg version="1.1" xmlns:xlink="http://www.w3.org/1999/xlink" width="253px" height="30px" xmlns="http://www.w3.org/2000/svg">
  <g transform="matrix(1 0 0 1 -401 -216 )">
    <path d="M 402 224  A 7 7 0 0 1 409 217 L 646 217  A 7 7 0 0 1 653 224 L 653 238  A 7 7 0 0 1 646 245 L 409 245  A 7 7 0 0 1 402 238 L 402 224  Z " fill-rule="nonzero" fill="#ffffff" stroke="none" fill-opacity="0" />
    <path d="M 401.5 224  A 7.5 7.5 0 0 1 409 216.5 L 646 216.5  A 7.5 7.5 0 0 1 653.5 224 L 653.5 238  A 7.5 7.5 0 0 1 646 245.5 L 409 245.5  A 7.5 7.5 0 0 1 401.5 238 L 401.5 224  Z " stroke-width="1" stroke="#999999" fill="none" stroke-opacity="0.501960784313725" />
  </g>
</svg>