<?xml version="1.0" encoding="utf-8"?>
<svg version="1.1" xmlns:xlink="http://www.w3.org/1999/xlink" width="80px" height="35px" xmlns="http://www.w3.org/2000/svg">
  <g transform="matrix(1 0 0 1 -1594 -247 )">
    <path d="M 1595 252  A 4 4 0 0 1 1599 248 L 1669 248  A 4 4 0 0 1 1673 252 L 1673 277  A 4 4 0 0 1 1669 281 L 1599 281  A 4 4 0 0 1 1595 277 L 1595 252  Z " fill-rule="nonzero" fill="#f0f7ff" stroke="none" />
    <path d="M 1594.5 252  A 4.5 4.5 0 0 1 1599 247.5 L 1669 247.5  A 4.5 4.5 0 0 1 1673.5 252 L 1673.5 277  A 4.5 4.5 0 0 1 1669 281.5 L 1599 281.5  A 4.5 4.5 0 0 1 1594.5 277 L 1594.5 252  Z " stroke-width="1" stroke="#7abbff" fill="none" stroke-opacity="0.996078431372549" />
  </g>
</svg>