<?xml version="1.0" encoding="utf-8"?>
<svg version="1.1" xmlns:xlink="http://www.w3.org/1999/xlink" width="17px" height="24px" xmlns="http://www.w3.org/2000/svg">
  <g transform="matrix(1 0 0 1 -1018 -286 )">
    <path d="M 16.6845703125 14.5056818181818  C 16.8948567708333 14.7215909090909  17 14.9772727272727  17 15.2727272727273  C 17 15.5681818181818  16.8948567708333 15.8238636363636  16.6845703125 16.0397727272727  L 9.2470703125 23.6761363636364  C 9.03678385416667 23.8920454545455  8.78776041666667 24  8.5 24  C 8.21223958333333 24  7.96321614583333 23.8920454545455  7.7529296875 23.6761363636364  L 0.3154296875 16.0397727272727  C 0.105143229166667 15.8238636363636  0 15.5681818181818  0 15.2727272727273  C 0 14.9772727272727  0.105143229166667 14.7215909090909  0.3154296875 14.5056818181818  C 0.525716145833333 14.2897727272727  0.774739583333333 14.1818181818182  1.0625 14  L 15.9375 14  C 16.2252604166667 14.1818181818182  16.4742838541667 14.2897727272727  16.6845703125 14.5056818181818  Z M 16.6845703125 7.96022727272727  C 16.8948567708333 8.17613636363636  17 8.43181818181818  17 8.72727272727273  C 17 9.02272727272727  16.8948567708333 9.27840909090909  16.6845703125 9.49431818181818  C 16.4742838541667 9.71022727272727  16.2252604166667 9.81818181818182  15.9375 10  L 1.0625 10  C 0.774739583333333 9.81818181818182  0.525716145833333 9.71022727272727  0.3154296875 9.49431818181818  C 0.105143229166667 9.27840909090909  0 9.02272727272727  0 8.72727272727273  C 0 8.43181818181818  0.105143229166667 8.17613636363636  0.3154296875 7.96022727272727  L 7.7529296875 0.323863636363638  C 7.96321614583333 0.107954545454543  8.21223958333333 0  8.5 0  C 8.78776041666667 0  9.03678385416667 0.107954545454543  9.2470703125 0.323863636363638  L 16.6845703125 7.96022727272727  Z " fill-rule="nonzero" fill="#000000" stroke="none" transform="matrix(1 0 0 1 1018 286 )" />
  </g>
</svg>