<?xml version="1.0" encoding="utf-8"?>
<svg version="1.1" xmlns:xlink="http://www.w3.org/1999/xlink" width="18px" height="18px" xmlns="http://www.w3.org/2000/svg">
  <g transform="matrix(1 0 0 1 -395 -75 )">
    <path d="M 404 77  C 407.92 77  411 80.08  411 84  C 411 87.92  407.92 91  404 91  C 400.08 91  397 87.92  397 84  C 397 80.08  400.08 77  404 77  Z " fill-rule="nonzero" fill="#ffffff" stroke="none" />
    <path d="M 404 76.5  C 408.2 76.5  411.5 79.8  411.5 84  C 411.5 88.2  408.2 91.5  404 91.5  C 399.8 91.5  396.5 88.2  396.5 84  C 396.5 79.8  399.8 76.5  404 76.5  Z " stroke-width="3" stroke="#000000" fill="none" />
  </g>
</svg>