<?xml version="1.0" encoding="utf-8"?>
<svg version="1.1" xmlns:xlink="http://www.w3.org/1999/xlink" width="10px" height="18px" xmlns="http://www.w3.org/2000/svg">
  <g transform="matrix(1 0 0 1 -73 -74 )">
    <path d="M 9.7224489872449 17.7551020331633  C 9.5755102117347 17.9510203928571  9.37959185204082 18  9.18367346938774 18  C 8.98775510969386 18  8.79183672704082 17.9510204158163  8.69387755867346 17.8040816403061  L 0.367346938775514 9.72244898724489  C 0.220408163265315 9.5755102117347  0.122448971938761 9.37959185204082  0.122448971938761 9.18367346938774  C 0.122448971938761 8.98775510969386  0.220408163265315 8.79183672704082  0.367346938775514 8.64489795153062  L 8.74285714285714 0.563265298469389  C 9.03673469387754 0.269387747448988  9.47755102040817 0.269387747448988  9.77142857142857 0.563265298469389  C 10.065306122449 0.85714284948979  10.065306122449 1.29795917602041  9.77142857142857 1.59183672704081  L 1.93469388520409 9.18367346938774  L 9.7224489872449 16.7265306045918  C 10.0163265382653 17.0204081556122  10.0163265382653 17.4612244821429  9.7224489872449 17.7551020331633  Z " fill-rule="nonzero" fill="#353535" stroke="none" transform="matrix(1 0 0 1 73 74 )" />
  </g>
</svg>