<?xml version="1.0" encoding="utf-8"?>
<svg version="1.1" xmlns:xlink="http://www.w3.org/1999/xlink" width="300px" height="35px" xmlns="http://www.w3.org/2000/svg">
  <defs>
    <linearGradient gradientUnits="userSpaceOnUse" x1="551" y1="81" x2="551" y2="116" id="LinearGradient275">
      <stop id="Stop276" stop-color="#0000ff" offset="0" />
      <stop id="Stop277" stop-color="#1b96f0" offset="1" />
    </linearGradient>
  </defs>
  <g transform="matrix(1 0 0 1 -401 -81 )">
    <path d="M 401.5 91  A 9.5 9.5 0 0 1 411 81.5 L 691 81.5  A 9.5 9.5 0 0 1 700.5 91 L 700.5 106  A 9.5 9.5 0 0 1 691 115.5 L 411 115.5  A 9.5 9.5 0 0 1 401.5 106 L 401.5 91  Z " fill-rule="nonzero" fill="#ffffff" stroke="none" />
    <path d="M 401.5 91  A 9.5 9.5 0 0 1 411 81.5 L 691 81.5  A 9.5 9.5 0 0 1 700.5 91 L 700.5 106  A 9.5 9.5 0 0 1 691 115.5 L 411 115.5  A 9.5 9.5 0 0 1 401.5 106 L 401.5 91  Z " stroke-width="1" stroke="url(#LinearGradient275)" fill="none" />
  </g>
</svg>