<?xml version="1.0" encoding="utf-8"?>
<svg version="1.1" xmlns:xlink="http://www.w3.org/1999/xlink" width="20px" height="20px" xmlns="http://www.w3.org/2000/svg">
  <g transform="matrix(1 0 0 1 -248 -496 )">
    <path d="M 258 496  C 263.6 496  268 500.4  268 506  C 268 511.6  263.6 516  258 516  C 252.4 516  248 511.6  248 506  C 248 500.4  252.4 496  258 496  Z " fill-rule="nonzero" fill="#ffffff" stroke="none" />
    <path d="M 258 496.5  C 263.32 496.5  267.5 500.68  267.5 506  C 267.5 511.32  263.32 515.5  258 515.5  C 252.68 515.5  248.5 511.32  248.5 506  C 248.5 500.68  252.68 496.5  258 496.5  Z " stroke-width="1" stroke="#797979" fill="none" />
  </g>
</svg>