<?xml version="1.0" encoding="utf-8"?>
<svg version="1.1" xmlns:xlink="http://www.w3.org/1999/xlink" width="23px" height="18px" xmlns="http://www.w3.org/2000/svg">
  <g transform="matrix(1 0 0 1 -294 -180 )">
    <path d="M 10.7264573991031 13.5  L 11.4484304932735 13.5  L 12.9439461883408 12.0170454545455  L 10.9843049327354 10.0738636363636  L 9.48878923766816 11.5568181818182  L 9.48878923766816 12.2727272727273  L 10.7264573991031 12.2727272727273  L 10.7264573991031 13.5  Z M 17.1081838565022 4.71732954545455  C 17.2542974588939 4.57244318181818  17.2585949177877 4.43181818181818  17.1210762331839 4.29545454545455  C 16.98355754858 4.15909090909091  16.8417414050822 4.16335227272727  16.6956278026906 4.30823863636364  L 12.1832959641256 8.78267045454546  C 12.0371823617339 8.92755681818182  12.0328849028401 9.06818181818182  12.1704035874439 9.20454545454546  C 12.3079222720478 9.34090909090909  12.4497384155456 9.33664772727272  12.5958520179372 9.19176136363637  L 17.1081838565022 4.71732954545455  Z M 17.8946188340807 11.5184659090909  C 18.0665171898356 11.5866477272727  18.152466367713 11.7102272727273  18.152466367713 11.8892045454545  L 18.152466367713 14.3181818181818  C 18.152466367713 15.3323863636364  17.7893310911809 16.1995738636364  17.0630605381166 16.9197443181818  C 16.3367899850523 17.6399147727273  15.4622571001495 18  14.4394618834081 18  L 3.71300448430493 18  C 2.69020926756353 18  1.81567638266069 17.6399147727273  1.08940582959641 16.9197443181818  C 0.363135276532137 16.1995738636364  0 15.3323863636364  0 14.3181818181818  L 0 3.68181818181818  C 0 2.66761363636363  0.363135276532137 1.80042613636364  1.08940582959641 1.08025568181818  C 1.81567638266069 0.360085227272726  2.69020926756353 0  3.71300448430493 0  L 14.4394618834081 0  C 14.9809417040359 0  15.4837443946188 0.10653409090909  15.947869955157 0.319602272727272  C 16.0767937219731 0.379261363636362  16.1541479820628 0.477272727272727  16.179932735426 0.613636363636363  C 16.2057174887892 0.758522727272727  16.1670403587444 0.882102272727272  16.0639013452915 0.984375  L 15.4321748878924 1.61079545454545  C 15.311846038864 1.73011363636364  15.1743273542601 1.76420454545455  15.0196188340807 1.71306818181818  C 14.8219357249626 1.66193181818182  14.6285500747384 1.63636363636364  14.4394618834081 1.63636363636364  L 3.71300448430493 1.63636363636364  C 3.1457399103139 1.63636363636364  2.66012705530643 1.83664772727273  2.25616591928251 2.23721590909091  C 1.8522047832586 2.63778409090909  1.65022421524664 3.11931818181818  2 3.68181818181818  L 2 14.3181818181818  C 1.65022421524664 14.8806818181818  1.8522047832586 15.3622159090909  2.25616591928251 15.7627840909091  C 2.66012705530643 16.1633522727273  3.1457399103139 16.3636363636364  3.71300448430493 16.3636363636364  L 14.4394618834081 16.3636363636364  C 15.0067264573991 16.3636363636364  15.4923393124066 16.1633522727273  15.8963004484305 15.7627840909091  C 16.3002615844544 15.3622159090909  16.5022421524664 14.8806818181818  16.5022421524664 14.3181818181818  L 16.5022421524664 12.7073863636364  C 16.5022421524664 12.5965909090909  16.5409192825112 12.5028409090909  16.6182735426009 12.4261363636364  L 17.4433856502242 11.6079545454545  C 17.5723094170404 11.4801136363636  17.7227204783259 11.4502840909091  17.8946188340807 11.5184659090909  Z M 8.25112107623318 11.0454545454545  L 16.914798206278 2.45454545454545  L 20.627802690583 6.13636363636364  L 11.9641255605381 14.7272727272727  L 8.25112107623318 14.7272727272727  L 8.25112107623318 11.0454545454545  Z M 23 3.27272727272727  C 23 3.61363636363636  22.8796711509716 3.90340909090909  22.6390134529148 4.14204545454545  L 21.4529147982063 5.31818181818182  L 17.7399103139013 1.63636363636364  L 18.9260089686099 0.460227272727272  C 19.1666666666667 0.221590909090907  19.4588938714499 0.102272727272728  19.8026905829596 0.102272727272728  C 20.1464872944694 0.102272727272728  20.4387144992526 0.221590909090907  20.6793721973094 0.460227272727272  L 22.6390134529148 2.40340909090909  C 22.8796711509716 2.64204545454545  23 2.93181818181818  23 3.27272727272727  Z " fill-rule="nonzero" fill="#ffffff" stroke="none" transform="matrix(1 0 0 1 294 180 )" />
  </g>
</svg>