<?xml version="1.0" encoding="utf-8"?>
<svg version="1.1" xmlns:xlink="http://www.w3.org/1999/xlink" width="23px" height="20px" xmlns="http://www.w3.org/2000/svg">
  <g transform="matrix(1 0 0 1 -335 -113 )">
    <path d="M 12.7064732142857 2.5566164286278  C 11.5684523809524 2.06423104237354  10.3448660714285 1.81803834924641  9.03571428571431 1.81803834924641  C 7.7265625 1.81803834924641  6.5029761904762 2.06423104237354  5.36495535714284 2.5566164286278  C 4.22693452380954 3.04900181488205  3.32207961309522 3.7165627712459  2.650390625 4.55929929771962  C 1.97870163690478 5.40203582419321  1.64285714285716 6.30632052394851  1.64285714285716 7.27215339698579  C 1.64285714285716 8.04860727530976  1.86960565476192 8.79665430442668  2.32310267857147 9.51629448433671  C 2.77659970238093 10.2359346642469  3.4140625 10.8608853468002  4.23549107142853 11.3911465319972  L 5.48046875 12.1865383097924  L 5.03125 13.3796259764854  C 5.32217261904762 13.1902469817723  5.58742559523808 13.005602461927  5.82700892857147 12.8256924169495  L 6.39174107142853 12.3853862542413  L 7.07198660714284 12.5274205002762  C 7.73939732142853 12.6599857965754  8.39397321428569 12.7262684447249  9.03571428571431 12.7262684447249  C 10.3448660714285 12.7262684447249  11.5684523809524 12.4800757515978  12.7064732142857 11.9876903653437  C 13.8444940476191 11.4953049790894  14.7493489583333 10.8277440227254  15.4210379464285 9.98500749625183  C 16.0927269345238 9.14227096977824  16.4285714285715 8.23798627002281  16.4285714285715 7.27215339698579  C 16.4285714285715 6.30632052394851  16.0927269345238 5.40203582419321  15.4210379464285 4.55929929771962  C 14.7493489583333 3.7165627712459  13.8444940476191 3.04900181488205  12.7064732142857 2.5566164286278  Z M 4.49860491071431 0.972934585338943  C 5.88904389880954 0.324311528446314  7.4014136904762 0  9.03571428571431 0  C 10.6700148809524 0  12.1823846726191 0.324311528446314  13.5728236607143 0.972934585338943  C 14.9632626488095 1.62155764223157  16.0606398809524 2.50453720508163  16.8649553571428 3.62187327388938  C 17.6692708333333 4.73920934269713  18.0714285714285 5.95596938372918  18.0714285714285 7.27215339698579  C 18.0714285714285 8.58833741024214  17.6692708333333 9.80509745127432  16.8649553571428 10.9224335200821  C 16.0606398809524 12.0397695888897  14.9632626488095 12.9227491517399  13.5728236607143 13.5713722086325  C 12.1823846726191 14.2199952655251  10.6700148809524 14.5443067939715  9.03571428571431 14.5443067939715  C 8.2998511904762 14.5443067939715  7.546875 14.4685551960862  6.77678571428569 14.3170520003156  C 5.7157738095238 15.1503195770536  4.5264136904762 15.7563323601357  3.20870535714284 16.1350903495621  C 2.90066964285716 16.2203108971829  2.53273809523808 16.2960624950682  2.10491071428569 16.3623451432179  L 2.06640625 16.3623451432179  C 1.97228422619046 16.3623451432179  1.88457961309522 16.3244693442752  1.80329241071431 16.24871774639  C 1.72200520833331 16.1729661485047  1.6728050595238 16.0735421762803  1.65569196428569 15.9504458297167  C 1.64713541666669 15.9220389805096  1.64285714285716 15.8912648938689  1.64285714285716 15.858123569794  C 1.64285714285716 15.8249822457192  1.64499627976192 15.7942081590783  1.64927455357147 15.7658013098714  C 1.65355282738093 15.7373944606644  1.662109375 15.7089876114575  1.67494419642853 15.6805807622504  L 1.70703125 15.609563639233  C 1.70703125 15.609563639233  1.72200520833331 15.5835240274599  1.751953125 15.5314448039138  C 1.78190104166669 15.4793655803677  1.79901413690478 15.4556932060285  1.80329241071431 15.4604276808963  C 1.8075706845238 15.4651621557642  1.82682291666669 15.4414897814251  1.86104910714284 15.3894105578789  C 1.89527529761907 15.3373313343328  1.91238839285716 15.3160261974275  1.91238839285716 15.3254951471632  C 1.95517113095238 15.2686814487492  2.05357142857147 15.1503195770536  2.20758928571431 14.9704095320761  C 2.36160714285716 14.7904994870984  2.47284226190478 14.6508324784975  2.54129464285716 14.5514085062731  C 2.60974702380954 14.4519845340488  2.7060081845238 14.3146847628817  2.830078125 14.1395091927719  C 2.9541480654762 13.9643336226623  3.06110491071431 13.7820563402509  3.15094866071431 13.5926773455378  C 3.24079241071431 13.4032983508246  3.32849702380954 13.19498145664  3.4140625 12.9677266629843  C 2.35305059523808 12.2859622820168  1.51878720238093 11.447960230411  0.911272321428533 10.453720508167  C 0.303757440476198 9.45948078592276  0 8.39895841552909  0 7.27215339698579  C 0 5.95596938372918  0.402157738095225 4.73920934269713  1.20647321428569 3.62187327388938  C 2.0107886904762 2.50453720508163  3.10816592261907 1.62155764223157  4.49860491071431 0.972934585338943  Z M 22.0887276785715 14.0968989189616  C 21.4812127976191 15.0864041663379  20.6469494047619 15.9220389805096  19.5859375 16.6038033614772  C 19.6715029761905 16.831058155133  19.7592075892857 17.0393750493174  19.8490513392857 17.2287540440306  C 19.9388950892857 17.4181330387438  20.0458519345238 17.6004103211552  20.169921875 17.7755858912649  C 20.2939918154762 17.9507614613745  20.3902529761905 18.0880612325415  20.4587053571428 18.1874852047659  C 20.5271577380952 18.2869091769904  20.6383928571428 18.4265761855914  20.7924107142857 18.6064862305689  C 20.9464285714286 18.7863962755464  21.0448288690476 18.9047581472422  21.0876116071428 18.961571845656  C 21.0961681547619 18.9710407953918  21.11328125 18.9923459322971  21.1389508928572 19.0254872563718  C 21.1646205357143 19.0586285804466  21.1838727678572 19.0823009547857  21.1967075892857 19.0965043793891  C 21.2095424107143 19.1107078039927  21.2266555059524 19.1343801783319  21.248046875 19.1675215024067  C 21.2694382440476 19.2006628264815  21.2844122023809 19.2267024382545  21.29296875 19.2456403377259  L 21.3250558035715 19.3166574607434  C 21.3250558035715 19.3166574607434  21.3336123511905 19.3450643099503  21.3507254464285 19.4018780083642  C 21.3678385416667 19.4586917067782  21.3699776785715 19.4894657934191  21.3571428571428 19.4942002682869  C 21.3443080357143 19.4989347431548  21.3400297619048 19.5297088297956  21.3443080357143 19.5865225282095  C 21.3186383928572 19.7190878245088  21.2630208333333 19.8232462716011  21.1774553571428 19.8989978694863  C 21.0918898809524 19.9747494673716  20.9977678571428 20.0078907914464  20.8950892857143 19.9984218417107  C 20.4672619047619 19.9321391935611  20.0993303571428 19.8563875956758  19.7912946428572 19.7711670480549  C 18.4735863095238 19.3924090586286  17.2842261904762 18.7863962755464  16.2232142857143 17.9531286988084  C 15.453125 18.104631894579  14.7001488095238 18.1803834924643  13.9642857142857 18.1803834924643  C 11.6454613095238 18.1803834924643  9.62611607142853 17.5554328099108  7.90625 16.3055314448039  C 8.40252976190478 16.3434072437465  8.77901785714284 16.3623451432179  9.03571428571431 16.3623451432179  C 10.4133184523809 16.3623451432179  11.7353050595238 16.1492937741656  13.0016741071428 15.7231910360609  C 14.2680431547619 15.2970882979563  15.3975074404762 14.6863410400064  16.3900669642857 13.8909492622111  C 17.4596354166667 13.0198058865304  18.2810639880952 12.0160972145506  18.8543526785715 10.8798232462716  C 19.4276413690476 9.74354927799261  19.7142857142857 8.54099266156401  19.7142857142857 7.27215339698579  C 19.7142857142857 6.54304426733996  19.6158854166667 5.82340408742994  19.4190848214285 5.11323285725559  C 20.5228794642857 5.78552828848735  21.3956473214285 6.62826481496094  22.0373883928572 7.64144243667635  C 22.6791294642857 8.6546200583919  23 9.74354927799261  23 10.9082300954786  C 23 12.0445040637576  22.6962425595238 13.1073936715852  22.0887276785715 14.0968989189616  Z " fill-rule="nonzero" fill="#ffffff" stroke="none" transform="matrix(1 0 0 1 335 113 )" />
  </g>
</svg>