<?xml version="1.0" encoding="utf-8"?>
<svg version="1.1" xmlns:xlink="http://www.w3.org/1999/xlink" width="82px" height="30px" xmlns="http://www.w3.org/2000/svg">
  <g transform="matrix(1 0 0 1 -491 -193 )">
    <path d="M 492 201  A 7 7 0 0 1 499 194 L 565 194  A 7 7 0 0 1 572 201 L 572 215  A 7 7 0 0 1 565 222 L 499 222  A 7 7 0 0 1 492 215 L 492 201  Z " fill-rule="nonzero" fill="#ffffff" stroke="none" fill-opacity="0" />
    <path d="M 491.5 201  A 7.5 7.5 0 0 1 499 193.5 L 565 193.5  A 7.5 7.5 0 0 1 572.5 201 L 572.5 215  A 7.5 7.5 0 0 1 565 222.5 L 499 222.5  A 7.5 7.5 0 0 1 491.5 215 L 491.5 201  Z " stroke-width="1" stroke="#999999" fill="none" stroke-opacity="0.509803921568627" />
  </g>
</svg>