<?xml version="1.0" encoding="utf-8"?>
<svg version="1.1" xmlns:xlink="http://www.w3.org/1999/xlink" width="89px" height="30px" xmlns="http://www.w3.org/2000/svg">
  <g transform="matrix(1 0 0 1 -491 -1070 )">
    <path d="M 492 1078  A 7 7 0 0 1 499 1071 L 572 1071  A 7 7 0 0 1 579 1078 L 579 1092  A 7 7 0 0 1 572 1099 L 499 1099  A 7 7 0 0 1 492 1092 L 492 1078  Z " fill-rule="nonzero" fill="#0079fe" stroke="none" />
    <path d="M 491.5 1078  A 7.5 7.5 0 0 1 499 1070.5 L 572 1070.5  A 7.5 7.5 0 0 1 579.5 1078 L 579.5 1092  A 7.5 7.5 0 0 1 572 1099.5 L 499 1099.5  A 7.5 7.5 0 0 1 491.5 1092 L 491.5 1078  Z " stroke-width="1" stroke="#999999" fill="none" stroke-opacity="0.509803921568627" />
  </g>
</svg>