<?xml version="1.0" encoding="utf-8"?>
<svg version="1.1" xmlns:xlink="http://www.w3.org/1999/xlink" width="51px" height="30px" xmlns="http://www.w3.org/2000/svg">
  <g transform="matrix(1 0 0 1 -427 -1070 )">
    <path d="M 428 1078  A 7 7 0 0 1 435 1071 L 470 1071  A 7 7 0 0 1 477 1078 L 477 1092  A 7 7 0 0 1 470 1099 L 435 1099  A 7 7 0 0 1 428 1092 L 428 1078  Z " fill-rule="nonzero" fill="#ffffff" stroke="none" fill-opacity="0" />
    <path d="M 427.5 1078  A 7.5 7.5 0 0 1 435 1070.5 L 470 1070.5  A 7.5 7.5 0 0 1 477.5 1078 L 477.5 1092  A 7.5 7.5 0 0 1 470 1099.5 L 435 1099.5  A 7.5 7.5 0 0 1 427.5 1092 L 427.5 1078  Z " stroke-width="1" stroke="#999999" fill="none" stroke-opacity="0.509803921568627" />
  </g>
</svg>