<?xml version="1.0" encoding="utf-8"?>
<svg version="1.1" xmlns:xlink="http://www.w3.org/1999/xlink" width="264px" height="30px" xmlns="http://www.w3.org/2000/svg">
  <g transform="matrix(1 0 0 1 -427 -1111 )">
    <path d="M 428 1119  A 7 7 0 0 1 435 1112 L 683 1112  A 7 7 0 0 1 690 1119 L 690 1133  A 7 7 0 0 1 683 1140 L 435 1140  A 7 7 0 0 1 428 1133 L 428 1119  Z " fill-rule="nonzero" fill="#ffffff" stroke="none" fill-opacity="0" />
    <path d="M 427.5 1119  A 7.5 7.5 0 0 1 435 1111.5 L 683 1111.5  A 7.5 7.5 0 0 1 690.5 1119 L 690.5 1133  A 7.5 7.5 0 0 1 683 1140.5 L 435 1140.5  A 7.5 7.5 0 0 1 427.5 1133 L 427.5 1119  Z " stroke-width="1" stroke="#999999" fill="none" stroke-opacity="0.509803921568627" />
  </g>
</svg>