<?xml version="1.0" encoding="utf-8"?>
<svg version="1.1" xmlns:xlink="http://www.w3.org/1999/xlink" width="70px" height="30px" xmlns="http://www.w3.org/2000/svg">
  <g transform="matrix(1 0 0 1 -575 -867 )">
    <path d="M 576 875  A 7 7 0 0 1 583 868 L 637 868  A 7 7 0 0 1 644 875 L 644 889  A 7 7 0 0 1 637 896 L 583 896  A 7 7 0 0 1 576 889 L 576 875  Z " fill-rule="nonzero" fill="#ffffff" stroke="none" fill-opacity="0" />
    <path d="M 575.5 875  A 7.5 7.5 0 0 1 583 867.5 L 637 867.5  A 7.5 7.5 0 0 1 644.5 875 L 644.5 889  A 7.5 7.5 0 0 1 637 896.5 L 583 896.5  A 7.5 7.5 0 0 1 575.5 889 L 575.5 875  Z " stroke-width="1" stroke="#999999" fill="none" stroke-opacity="0.509803921568627" />
  </g>
</svg>