<?xml version="1.0" encoding="utf-8"?>
<svg version="1.1" xmlns:xlink="http://www.w3.org/1999/xlink" width="118px" height="30px" xmlns="http://www.w3.org/2000/svg">
  <g transform="matrix(1 0 0 1 -491 -1360 )">
    <path d="M 492 1368  A 7 7 0 0 1 499 1361 L 601 1361  A 7 7 0 0 1 608 1368 L 608 1382  A 7 7 0 0 1 601 1389 L 499 1389  A 7 7 0 0 1 492 1382 L 492 1368  Z " fill-rule="nonzero" fill="#ffffff" stroke="none" fill-opacity="0" />
    <path d="M 491.5 1368  A 7.5 7.5 0 0 1 499 1360.5 L 601 1360.5  A 7.5 7.5 0 0 1 608.5 1368 L 608.5 1382  A 7.5 7.5 0 0 1 601 1389.5 L 499 1389.5  A 7.5 7.5 0 0 1 491.5 1382 L 491.5 1368  Z " stroke-width="1" stroke="#999999" fill="none" stroke-opacity="0.509803921568627" />
  </g>
</svg>