<?xml version="1.0" encoding="utf-8"?>
<svg version="1.1" xmlns:xlink="http://www.w3.org/1999/xlink" width="105px" height="30px" xmlns="http://www.w3.org/2000/svg">
  <g transform="matrix(1 0 0 1 -427 -462 )">
    <path d="M 428 470  A 7 7 0 0 1 435 463 L 524 463  A 7 7 0 0 1 531 470 L 531 484  A 7 7 0 0 1 524 491 L 435 491  A 7 7 0 0 1 428 484 L 428 470  Z " fill-rule="nonzero" fill="#ffffff" stroke="none" fill-opacity="0" />
    <path d="M 427.5 470  A 7.5 7.5 0 0 1 435 462.5 L 524 462.5  A 7.5 7.5 0 0 1 531.5 470 L 531.5 484  A 7.5 7.5 0 0 1 524 491.5 L 435 491.5  A 7.5 7.5 0 0 1 427.5 484 L 427.5 470  Z " stroke-width="1" stroke="#999999" fill="none" stroke-opacity="0.509803921568627" />
  </g>
</svg>