<?xml version="1.0" encoding="utf-8"?>
<svg version="1.1" xmlns:xlink="http://www.w3.org/1999/xlink" width="32px" height="28px" xmlns="http://www.w3.org/2000/svg">
  <g transform="matrix(1 0 0 1 -100 -1136 )">
    <path d="M 100 1136  L 132 1136  L 132 1164  L 100 1164  L 100 1136  " fill-rule="nonzero" fill="#cccccc" stroke="none" />
    <path d="M 102 1138  L 130 1138  L 130 1162  L 102 1162  L 102 1138  " fill-rule="nonzero" fill="#ffffff" stroke="none" />
    <path d="M 118.74 1144.4  C 117.564 1144.4  116.64 1143.476  116.64 1142.3  C 116.64 1141.124  117.564 1140.2  118.74 1140.2  C 119.916 1140.2  120.84 1141.124  120.84 1142.3  C 120.84 1143.476  119.916 1144.4  118.74 1144.4  " fill-rule="nonzero" fill="#cccccc" stroke="none" />
    <path d="M 103 1162  L 103 1149.35  L 109.75 1143.6  L 119.2 1149.925  L 124.6 1147.05  L 130 1149.925  L 130 1162  L 103 1162  " fill-rule="nonzero" fill="#169bd5" stroke="none" />
  </g>
</svg>