<?xml version="1.0" encoding="utf-8"?>
<svg version="1.1" xmlns:xlink="http://www.w3.org/1999/xlink" width="299px" height="92px" xmlns="http://www.w3.org/2000/svg">
  <defs>
    <linearGradient gradientUnits="userSpaceOnUse" x1="149" y1="0" x2="149" y2="91" id="LinearGradient42">
      <stop id="Stop43" stop-color="#02a7f0" offset="0" />
      <stop id="Stop44" stop-color="#2f54eb" stop-opacity="0.4" offset="1" />
    </linearGradient>
  </defs>
  <g transform="matrix(1 0 0 1 -238 -307 )">
    <path d="M 1.5 90.5345268542199  L 298.5 90.5345268542199  L 298.5 67.2202203692676  C 298.5 67.2202203692676  276.378703011342 51.7437995132411  248.592351151673 51.2065217391304  C 220.557628022366 50.6644414503327  223.658760854794 74.4676151466697  200.156019122121 67.2202203692676  C 169.715433981942 57.8334458271596  185.215887456201 28.684941335517  153.532811820947 11.0326086956522  C 128.599824605711 -2.85888937403434  128.318028429371 -2.27744744082278  101.17654842165 5.63694035881689  C 68.9126438968104 15.045014357268  81.1385023664643 33.0099235000028  48.9480501584677 47.936638388123  C 24.2605230310065 59.3842464037944  1.5 56.3804347826089  1.5 56.3804347826089  L 1.5 90.5345268542199  Z " fill-rule="nonzero" fill="url(#LinearGradient42)" stroke="none" transform="matrix(1 0 0 1 238 307 )" />
    <path d="M 298.5 90.5345268542199  L 298.5 67.2202203692676  C 298.5 67.2202203692676  276.378703011342 51.7437995132411  248.592351151673 51.2065217391304  C 220.557628022366 50.6644414503327  223.658760854794 74.4676151466697  200.156019122121 67.2202203692676  C 169.715433981942 57.8334458271596  185.215887456201 28.684941335517  153.532811820947 11.0326086956522  C 128.599824605711 -2.85888937403434  128.318028429371 -2.27744744082278  101.17654842165 5.63694035881689  C 68.9126438968104 15.045014357268  81.1385023664643 33.0099235000028  48.9480501584677 47.936638388123  C 24.2605230310065 59.3842464037944  1.5 56.3804347826089  1.5 56.3804347826089  L 1.5 90.5345268542199  " stroke-width="1" stroke="#13c2c2" fill="none" transform="matrix(1 0 0 1 238 307 )" />
  </g>
</svg>