<?xml version="1.0" encoding="utf-8"?>
<svg version="1.1" xmlns:xlink="http://www.w3.org/1999/xlink" width="24px" height="16px" xmlns="http://www.w3.org/2000/svg">
  <g transform="matrix(1 0 0 1 -789 -310 )">
    <path d="M 20 16  C 22.209 16  24 14.209  24 12  L 24 2  C 21 2  20 1  20 1  L 16 1  L 8 0  L 8 7.5  C 5.448 6.201  4.289 6  3 6  C 1.5 6  0 6.579  0 8.5  L 0 8.486  L 4.5 10.5  L 7.657 13.657  C 9.157 15.157  11.192 16  13.314 16  L 20 16  Z " fill-rule="nonzero" fill="#000000" stroke="none" transform="matrix(1 0 0 1 789 310 )" />
  </g>
</svg>