<?xml version="1.0" encoding="utf-8"?>
<svg version="1.1" xmlns:xlink="http://www.w3.org/1999/xlink" width="18px" height="18px" xmlns="http://www.w3.org/2000/svg">
  <g transform="matrix(1 0 0 1 -1579 -1557 )">
    <path d="M 3.27272727272727 13.0909090909091  L 4.90909090909091 13.0909090909091  L 4.90909090909091 14.7272727272727  L 3.27272727272727 14.7272727272727  L 3.27272727272727 13.0909090909091  Z M 3.27272727272727 3.27272727272727  L 4.90909090909091 3.27272727272727  L 4.90909090909091 4.90909090909091  L 3.27272727272727 4.90909090909091  L 3.27272727272727 3.27272727272727  Z M 13.0909090909091 3.27272727272727  L 14.7272727272727 3.27272727272727  L 14.7272727272727 4.90909090909091  L 13.0909090909091 4.90909090909091  L 13.0909090909091 3.27272727272727  Z M 1.63636363636364 11.4545454545455  L 1.63636363636364 16.3508522727273  L 6.54545454545455 16.3508522727273  L 6.54545454545455 11.4545454545455  L 1.63636363636364 11.4545454545455  Z M 1.63636363636364 1.63636363636364  L 1.63636363636364 6.54545454545455  L 6.54545454545455 6.54545454545455  L 6.54545454545455 1.63636363636364  L 1.63636363636364 1.63636363636364  Z M 11.4545454545455 1.63636363636364  L 11.4545454545455 6.54545454545455  L 16.3636363636364 6.54545454545455  L 16.3636363636364 1.63636363636364  L 11.4545454545455 1.63636363636364  Z M 0 9.81818181818182  L 8.18181818181818 9.81818181818182  L 8.18181818181818 18  L 0 18  L 0 9.81818181818182  Z M 13.0909090909091 16.3636363636364  L 14.7272727272727 16.3636363636364  L 14.7272727272727 18  L 13.0909090909091 18  L 13.0909090909091 16.3636363636364  Z M 16.3636363636364 16.3636363636364  L 18 16.3636363636364  L 18 18  L 16.3636363636364 18  L 16.3636363636364 16.3636363636364  Z M 16.3636363636364 9.81818181818182  L 18 9.81818181818182  L 18 14.7272727272727  L 13.0909090909091 14.7272727272727  L 13.0909090909091 13.0909090909091  L 11.4545454545455 13.0909090909091  L 11.4545454545455 18  L 9.81818181818182 18  L 9.81818181818182 9.81818181818182  L 14.7272727272727 9.81818181818182  L 14.7272727272727 11.4545454545455  L 16.3636363636364 11.4545454545455  L 16.3636363636364 9.81818181818182  Z M 0 0  L 8.18181818181818 0  L 8.18181818181818 8.18181818181818  L 0 8.18181818181818  L 0 0  Z M 9.81818181818182 0  L 18 0  L 18 8.18181818181818  L 9.81818181818182 8.18181818181818  L 9.81818181818182 0  Z " fill-rule="nonzero" fill="#0000ff" stroke="none" transform="matrix(1 0 0 1 1579 1557 )" />
  </g>
</svg>