<?xml version="1.0" encoding="utf-8"?>
<svg version="1.1" xmlns:xlink="http://www.w3.org/1999/xlink" width="12px" height="12px" viewBox="410 2460  12 12" xmlns="http://www.w3.org/2000/svg">
  <path d="M 416 2460  C 419.36 2460  422 2462.64  422 2466  C 422 2469.36  419.36 2472  416 2472  C 412.64 2472  410 2469.36  410 2466  C 410 2462.64  412.64 2460  416 2460  Z " fill-rule="nonzero" fill="#ffffff" stroke="none" />
  <path d="M 416 2460.5  C 419.08 2460.5  421.5 2462.92  421.5 2466  C 421.5 2469.08  419.08 2471.5  416 2471.5  C 412.92 2471.5  410.5 2469.08  410.5 2466  C 410.5 2462.92  412.92 2460.5  416 2460.5  Z " stroke-width="1" stroke="#797979" fill="none" />
  <path d="M 416 2469  C 414.32 2469  413 2467.68  413 2466  C 413 2464.32  414.32 2463  416 2463  C 417.68 2463  419 2464.32  419 2466  C 419 2467.68  417.68 2469  416 2469  " fill-rule="nonzero" fill="#797979" stroke="none" />
</svg>