<?xml version="1.0" encoding="utf-8"?>
<svg version="1.1" xmlns:xlink="http://www.w3.org/1999/xlink" width="12px" height="12px" viewBox="400 2012  12 12" xmlns="http://www.w3.org/2000/svg">
  <path d="M 406 2012  C 409.36 2012  412 2014.64  412 2018  C 412 2021.36  409.36 2024  406 2024  C 402.64 2024  400 2021.36  400 2018  C 400 2014.64  402.64 2012  406 2012  Z " fill-rule="nonzero" fill="#f0f0f0" stroke="none" />
  <path d="M 406 2012.5  C 409.08 2012.5  411.5 2014.92  411.5 2018  C 411.5 2021.08  409.08 2023.5  406 2023.5  C 402.92 2023.5  400.5 2021.08  400.5 2018  C 400.5 2014.92  402.92 2012.5  406 2012.5  Z " stroke-width="1" stroke="#797979" fill="none" />
  <path d="M 406 2021  C 404.32 2021  403 2019.68  403 2018  C 403 2016.32  404.32 2015  406 2015  C 407.68 2015  409 2016.32  409 2018  C 409 2019.68  407.68 2021  406 2021  " fill-rule="nonzero" fill="#797979" stroke="none" />
</svg>