<?xml version="1.0" encoding="utf-8"?>
<svg version="1.1" xmlns:xlink="http://www.w3.org/1999/xlink" width="12px" height="12px" viewBox="410 2415  12 12" xmlns="http://www.w3.org/2000/svg">
  <path d="M 416 2415  C 419.36 2415  422 2417.64  422 2421  C 422 2424.36  419.36 2427  416 2427  C 412.64 2427  410 2424.36  410 2421  C 410 2417.64  412.64 2415  416 2415  Z " fill-rule="nonzero" fill="#f0f0f0" stroke="none" />
  <path d="M 416 2415.5  C 419.08 2415.5  421.5 2417.92  421.5 2421  C 421.5 2424.08  419.08 2426.5  416 2426.5  C 412.92 2426.5  410.5 2424.08  410.5 2421  C 410.5 2417.92  412.92 2415.5  416 2415.5  Z " stroke-width="1" stroke="#797979" fill="none" />
  <path d="M 416 2424  C 414.32 2424  413 2422.68  413 2421  C 413 2419.32  414.32 2418  416 2418  C 417.68 2418  419 2419.32  419 2421  C 419 2422.68  417.68 2424  416 2424  " fill-rule="nonzero" fill="#797979" stroke="none" />
</svg>