<?xml version="1.0" encoding="utf-8"?>
<svg version="1.1" xmlns:xlink="http://www.w3.org/1999/xlink" width="12px" height="12px" viewBox="410 2254  12 12" xmlns="http://www.w3.org/2000/svg">
  <path d="M 416 2254  C 419.36 2254  422 2256.64  422 2260  C 422 2263.36  419.36 2266  416 2266  C 412.64 2266  410 2263.36  410 2260  C 410 2256.64  412.64 2254  416 2254  Z " fill-rule="nonzero" fill="#f0f0f0" stroke="none" />
  <path d="M 416 2254.5  C 419.08 2254.5  421.5 2256.92  421.5 2260  C 421.5 2263.08  419.08 2265.5  416 2265.5  C 412.92 2265.5  410.5 2263.08  410.5 2260  C 410.5 2256.92  412.92 2254.5  416 2254.5  Z " stroke-width="1" stroke="#797979" fill="none" />
  <path d="M 416 2263  C 414.32 2263  413 2261.68  413 2260  C 413 2258.32  414.32 2257  416 2257  C 417.68 2257  419 2258.32  419 2260  C 419 2261.68  417.68 2263  416 2263  " fill-rule="nonzero" fill="#797979" stroke="none" />
</svg>