<?xml version="1.0" encoding="utf-8"?>
<svg version="1.1" xmlns:xlink="http://www.w3.org/1999/xlink" width="12px" height="12px" viewBox="410 2550  12 12" xmlns="http://www.w3.org/2000/svg">
  <path d="M 416 2550  C 419.36 2550  422 2552.64  422 2556  C 422 2559.36  419.36 2562  416 2562  C 412.64 2562  410 2559.36  410 2556  C 410 2552.64  412.64 2550  416 2550  Z " fill-rule="nonzero" fill="#ffffff" stroke="none" />
  <path d="M 416 2550.5  C 419.08 2550.5  421.5 2552.92  421.5 2556  C 421.5 2559.08  419.08 2561.5  416 2561.5  C 412.92 2561.5  410.5 2559.08  410.5 2556  C 410.5 2552.92  412.92 2550.5  416 2550.5  Z " stroke-width="1" stroke="#797979" fill="none" />
  <path d="M 416 2559  C 414.32 2559  413 2557.68  413 2556  C 413 2554.32  414.32 2553  416 2553  C 417.68 2553  419 2554.32  419 2556  C 419 2557.68  417.68 2559  416 2559  " fill-rule="nonzero" fill="#797979" stroke="none" />
</svg>