<?xml version="1.0" encoding="utf-8"?>
<svg version="1.1" xmlns:xlink="http://www.w3.org/1999/xlink" width="12px" height="12px" viewBox="400 2052  12 12" xmlns="http://www.w3.org/2000/svg">
  <path d="M 406 2052  C 409.36 2052  412 2054.64  412 2058  C 412 2061.36  409.36 2064  406 2064  C 402.64 2064  400 2061.36  400 2058  C 400 2054.64  402.64 2052  406 2052  Z " fill-rule="nonzero" fill="#ffffff" stroke="none" />
  <path d="M 406 2052.5  C 409.08 2052.5  411.5 2054.92  411.5 2058  C 411.5 2061.08  409.08 2063.5  406 2063.5  C 402.92 2063.5  400.5 2061.08  400.5 2058  C 400.5 2054.92  402.92 2052.5  406 2052.5  Z " stroke-width="1" stroke="#797979" fill="none" />
  <path d="M 406 2061  C 404.32 2061  403 2059.68  403 2058  C 403 2056.32  404.32 2055  406 2055  C 407.68 2055  409 2056.32  409 2058  C 409 2059.68  407.68 2061  406 2061  " fill-rule="nonzero" fill="#797979" stroke="none" />
</svg>