<?xml version="1.0" encoding="utf-8"?>
<svg version="1.1" xmlns:xlink="http://www.w3.org/1999/xlink" width="30px" height="30px" xmlns="http://www.w3.org/2000/svg">
  <g transform="matrix(1 0 0 1 -1114 -923 )">
    <path d="M 24.7265625 15.859375  C 24.9609375 15.625  25.078125 15.33203125  25.078125 14.98046875  C 25.078125 14.62890625  24.9609375 14.3359375  24.7265625 14.1015625  L 17.65625 7.03125  L 15.87890625 5.25390625  C 15.64453125 5.01953125  15.3515625 4.90234375  15 4.90234375  C 14.6484375 4.90234375  14.35546875 5.01953125  14.12109375 5.25390625  L 12.34375 7.03125  L 5.2734375 14.1015625  C 5.0390625 14.3359375  4.921875 14.62890625  4.921875 14.98046875  C 4.921875 15.33203125  5.0390625 15.625  5.2734375 15.859375  L 7.05078125 17.63671875  C 7.28515625 17.87109375  7.578125 17.98828125  7.9296875 17.98828125  C 8.28125 17.98828125  8.57421875 17.87109375  8.80859375 17.63671875  L 12.5 13.9453125  L 12.5 23.75  C 12.5 24.0885416666667  12.6236979166667 24.3815104166667  12.87109375 24.62890625  C 13.1184895833333 24.8763020833333  13.4114583333333 25  13.75 25  L 16.25 25  C 16.5885416666667 25  16.8815104166667 24.8763020833333  17.12890625 24.62890625  C 17.3763020833333 24.3815104166667  17.5 24.0885416666667  17.5 23.75  L 17.5 13.9453125  L 21.19140625 17.63671875  C 21.4388020833333 17.8841145833333  21.7317708333333 18.0078125  22.0703125 18.0078125  C 22.4088541666667 18.0078125  22.7018229166667 17.8841145833333  22.94921875 17.63671875  L 24.7265625 15.859375  Z M 27.98828125 7.470703125  C 29.3294270833333 9.76888020833333  30 12.2786458333333  30 15  C 30 17.7213541666667  29.3294270833333 20.2311197916667  27.98828125 22.529296875  C 26.6471354166667 24.8274739583333  24.8274739583333 26.6471354166667  22.529296875 27.98828125  C 20.2311197916667 29.3294270833333  17.7213541666667 30  15 30  C 12.2786458333333 30  9.76888020833333 29.3294270833333  7.470703125 27.98828125  C 5.17252604166667 26.6471354166667  3.35286458333333 24.8274739583333  2.01171875 22.529296875  C 0.670572916666667 20.2311197916667  0 17.7213541666667  0 15  C 0 12.2786458333333  0.670572916666667 9.76888020833333  2.01171875 7.470703125  C 3.35286458333333 5.17252604166667  5.17252604166667 3.35286458333333  7.470703125 2.01171875  C 9.76888020833333 0.670572916666664  12.2786458333333 0  15 0  C 17.7213541666667 0  20.2311197916667 0.670572916666664  22.529296875 2.01171875  C 24.8274739583333 3.35286458333333  26.6471354166667 5.17252604166667  27.98828125 7.470703125  Z " fill-rule="nonzero" fill="#02a7f0" stroke="none" transform="matrix(1 0 0 1 1114 923 )" />
  </g>
</svg>