<?xml version="1.0" encoding="utf-8"?>
<svg version="1.1" xmlns:xlink="http://www.w3.org/1999/xlink" width="12px" height="12px" viewBox="1068 589  12 12" xmlns="http://www.w3.org/2000/svg">
  <path d="M 1074 589  C 1077.36 589  1080 591.64  1080 595  C 1080 598.36  1077.36 601  1074 601  C 1070.64 601  1068 598.36  1068 595  C 1068 591.64  1070.64 589  1074 589  Z " fill-rule="nonzero" fill="#f0f0f0" stroke="none" />
  <path d="M 1074 589.5  C 1077.08 589.5  1079.5 591.92  1079.5 595  C 1079.5 598.08  1077.08 600.5  1074 600.5  C 1070.92 600.5  1068.5 598.08  1068.5 595  C 1068.5 591.92  1070.92 589.5  1074 589.5  Z " stroke-width="1" stroke="#797979" fill="none" />
  <path d="M 1074 598  C 1072.32 598  1071 596.68  1071 595  C 1071 593.32  1072.32 592  1074 592  C 1075.68 592  1077 593.32  1077 595  C 1077 596.68  1075.68 598  1074 598  " fill-rule="nonzero" fill="#797979" stroke="none" />
</svg>