<?xml version="1.0" encoding="utf-8"?>
<svg version="1.1" xmlns:xlink="http://www.w3.org/1999/xlink" width="12px" height="12px" viewBox="1068 538  12 12" xmlns="http://www.w3.org/2000/svg">
  <path d="M 1074 538  C 1077.36 538  1080 540.64  1080 544  C 1080 547.36  1077.36 550  1074 550  C 1070.64 550  1068 547.36  1068 544  C 1068 540.64  1070.64 538  1074 538  Z " fill-rule="nonzero" fill="#f0f0f0" stroke="none" />
  <path d="M 1074 538.5  C 1077.08 538.5  1079.5 540.92  1079.5 544  C 1079.5 547.08  1077.08 549.5  1074 549.5  C 1070.92 549.5  1068.5 547.08  1068.5 544  C 1068.5 540.92  1070.92 538.5  1074 538.5  Z " stroke-width="1" stroke="#797979" fill="none" />
  <path d="M 1074 547  C 1072.32 547  1071 545.68  1071 544  C 1071 542.32  1072.32 541  1074 541  C 1075.68 541  1077 542.32  1077 544  C 1077 545.68  1075.68 547  1074 547  " fill-rule="nonzero" fill="#797979" stroke="none" />
</svg>