<?xml version="1.0" encoding="utf-8"?>
<svg version="1.1" xmlns:xlink="http://www.w3.org/1999/xlink" width="15px" height="9px" xmlns="http://www.w3.org/2000/svg">
  <g transform="matrix(1 0 0 1 -107 -121 )">
    <path d="M 14.8496993987976 0.927835051546391  C 14.9498997995992 1.03092783505154  15 1.14948453608247  15 1.28350515463918  C 15 1.41752577319588  14.9498997995992 1.5360824742268  14.8496993987976 1.63917525773196  L 7.84569138276553 8.84536082474227  C 7.74549098196393 8.94845360824742  7.63026052104208 9  7.5 9  C 7.36973947895792 9  7.25450901803607 8.94845360824742  7.15430861723447 8.84536082474227  L 0.150300601202405 1.63917525773196  C 0.0501002004008018 1.5360824742268  0 1.41752577319588  0 1.28350515463918  C 0 1.14948453608247  0.0501002004008018 1.03092783505154  0.150300601202405 0.927835051546391  L 0.901803607214429 0.154639175257732  C 1.00200400801603 0.0515463917525761  1.11723446893788 0  1.24749498997996 0  C 1.37775551102204 0  1.49298597194389 0.0515463917525761  1.59318637274549 0.154639175257732  L 7.5 6.2319587628866  L 13.4068136272545 0.154639175257732  C 13.5070140280561 0.0515463917525761  13.622244488978 0  13.75250501002 0  C 13.8827655310621 0  13.997995991984 0.0515463917525761  14.0981963927856 0.154639175257732  L 14.8496993987976 0.927835051546391  Z " fill-rule="nonzero" fill="#555555" stroke="none" transform="matrix(1 0 0 1 107 121 )" />
  </g>
</svg>