<?xml version="1.0" encoding="utf-8"?>
<svg version="1.1" xmlns:xlink="http://www.w3.org/1999/xlink" width="30px" height="30px" xmlns="http://www.w3.org/2000/svg">
  <g transform="matrix(1 0 0 1 -66 -179 )">
    <path d="M 81 179  C 89.4 179  96 185.6  96 194  C 96 202.4  89.4 209  81 209  C 72.6 209  66 202.4  66 194  C 66 185.6  72.6 179  81 179  Z " fill-rule="nonzero" fill="#ffffff" stroke="none" />
    <path d="M 81 179.5  C 89.12 179.5  95.5 185.88  95.5 194  C 95.5 202.12  89.12 208.5  81 208.5  C 72.88 208.5  66.5 202.12  66.5 194  C 66.5 185.88  72.88 179.5  81 179.5  Z " stroke-width="1" stroke="#797979" fill="none" />
  </g>
</svg>