<?xml version="1.0" encoding="utf-8"?>
<svg version="1.1" xmlns:xlink="http://www.w3.org/1999/xlink" width="80px" height="80px" xmlns="http://www.w3.org/2000/svg">
  <g transform="matrix(1 0 0 1 -107 -240 )">
    <path d="M 108 244  A 3 3 0 0 1 111 241 L 183 241  A 3 3 0 0 1 186 244 L 186 316  A 3 3 0 0 1 183 319 L 111 319  A 3 3 0 0 1 108 316 L 108 244  Z " fill-rule="nonzero" fill="#000000" stroke="none" fill-opacity="0.0196078431372549" />
    <path d="M 107.5 244  A 3.5 3.5 0 0 1 111 240.5 L 183 240.5  A 3.5 3.5 0 0 1 186.5 244 L 186.5 316  A 3.5 3.5 0 0 1 183 319.5 L 111 319.5  A 3.5 3.5 0 0 1 107.5 316 L 107.5 244  Z " stroke-width="1" stroke-dasharray="9,4" stroke="#d9d9d9" fill="none" stroke-dashoffset="0.5" />
  </g>
</svg>