<?xml version="1.0" encoding="utf-8"?>
<svg version="1.1" xmlns:xlink="http://www.w3.org/1999/xlink" width="50px" height="39px" xmlns="http://www.w3.org/2000/svg">
  <g transform="matrix(1 0 0 1 -297 -375 )">
    <path d="M 3.57142857142857 32  L 3.57142857142857 35  L 32.1428571428571 35  L 32.1428571428571 32  L 3.57142857142857 32  Z M 3.57142857142857 18  L 3.57142857142857 21  L 32.1428571428571 21  L 32.1428571428571 18  L 3.57142857142857 18  Z M 46.5401785714286 35.5653409090909  C 47.0610119047619 35.0482954545455  47.3214285714286 34.4204545454545  47.3214285714286 33.6818181818182  C 47.3214285714286 32.9431818181818  47.0610119047619 32.3153409090909  46.5401785714286 31.7982954545455  C 46.0193452380952 31.28125  45.3869047619048 31.0227272727273  44.6428571428571 31.0227272727273  C 43.8988095238095 31.0227272727273  43.2663690476191 31.28125  42.7455357142857 31.7982954545455  C 42.2247023809524 32.3153409090909  41.9642857142857 32.9431818181818  41.9642857142857 33.6818181818182  C 41.9642857142857 34.4204545454545  42.2247023809524 35.0482954545455  42.7455357142857 35.5653409090909  C 43.2663690476191 36.0823863636364  43.8988095238095 36.3409090909091  44.6428571428571 36.3409090909091  C 45.3869047619048 36.3409090909091  46.0193452380952 36.0823863636364  46.5401785714286 35.5653409090909  Z M 3.57142857142857 4  L 3.57142857142857 7  L 32.1428571428571 7  L 32.1428571428571 4  L 3.57142857142857 4  Z M 46.5401785714286 21.3835227272727  C 47.0610119047619 20.8664772727273  47.3214285714286 20.2386363636364  47.3214285714286 19.5  C 47.3214285714286 18.7613636363636  47.0610119047619 18.1335227272727  46.5401785714286 17.6164772727273  C 46.0193452380952 17.0994318181818  45.3869047619048 16.8409090909091  44.6428571428571 16.8409090909091  C 43.8988095238095 16.8409090909091  43.2663690476191 17.0994318181818  42.7455357142857 17.6164772727273  C 42.2247023809524 18.1335227272727  41.9642857142857 18.7613636363636  41.9642857142857 19.5  C 41.9642857142857 20.2386363636364  42.2247023809524 20.8664772727273  42.7455357142857 21.3835227272727  C 43.2663690476191 21.9005681818182  43.8988095238095 22.1590909090909  44.6428571428571 22.1590909090909  C 45.3869047619048 22.1590909090909  46.0193452380952 21.9005681818182  46.5401785714286 21.3835227272727  Z M 46.5401785714286 7.20170454545455  C 47.0610119047619 6.68465909090909  47.3214285714286 6.05681818181818  47.3214285714286 5.31818181818182  C 47.3214285714286 4.57954545454545  47.0610119047619 3.95170454545454  46.5401785714286 3.43465909090909  C 46.0193452380952 2.91761363636363  45.3869047619048 2.65909090909091  44.6428571428571 2.65909090909091  C 43.8988095238095 2.65909090909091  43.2663690476191 2.91761363636363  42.7455357142857 3.43465909090909  C 42.2247023809524 3.95170454545454  41.9642857142857 4.57954545454545  41.9642857142857 5.31818181818182  C 41.9642857142857 6.05681818181818  42.2247023809524 6.68465909090909  42.7455357142857 7.20170454545455  C 43.2663690476191 7.71874999999999  43.8988095238095 7.97727272727273  44.6428571428571 7.97727272727273  C 45.3869047619048 7.97727272727273  46.0193452380952 7.71874999999999  46.5401785714286 7.20170454545455  Z M 0 28  L 50 28  L 50 39  L 0 39  L 0 28  Z M 0 14.1818181818182  L 50 14.1818181818182  L 50 24.8181818181818  L 0 24.8181818181818  L 0 14.1818181818182  Z M 0 0  L 50 0  L 50 11  L 0 11  L 0 0  Z " fill-rule="nonzero" fill="#ffffff" stroke="none" fill-opacity="0.654901960784314" transform="matrix(1 0 0 1 297 375 )" />
  </g>
</svg>