<?xml version="1.0" encoding="utf-8"?>
<svg version="1.1" xmlns:xlink="http://www.w3.org/1999/xlink" width="50px" height="37px" xmlns="http://www.w3.org/2000/svg">
  <g transform="matrix(1 0 0 1 -114 -376 )">
    <path d="M 46.1760083813515 22.1264204545455  C 46.4903090623363 21.7410037878788  46.6474594028287 21.399384469697  46.6474594028287 21.1015625  C 46.6474594028287 20.4883996212121  46.1847389558233 20.1818181818182  45.2592980618125 20  L 16.7627029858565 20  C 16.0642570281125 20.1818181818182  15.3177929107735 20.370146780303  14.5233106338397 20.7468039772727  C 13.7288283569059 21.1234611742424  13.1045922821722 21.5833333333333  12.6506024096386 22.1264204545455  L 4.95023572551074 31.6654829545455  C 4.63593504452593 32.0859375  4.47878470403353 32.4363162878788  4.47878470403353 32.7166193181818  C 4.47878470403353 33.3297821969697  4.94150515103894 33.6363636363636  5.86694604504976 33  L 34.3635411210058 33  C 35.0619870787498 33.6363636363636  35.8128164833246 33.4436553030303  36.6160293347302 33.0582386363636  C 37.4192421861358 32.672821969697  38.0391129736337 32.2085700757576  38.4756416972237 31.6654829545455  L 46.1760083813515 22.1264204545455  Z M 13.0958617077004 17.7247869318182  C 14.3530644316396 17.1203835227273  15.5753448576916 16.8181818181818  16.7627029858565 17  L 36.8779465688842 17  L 36.8779465688842 12.6136363636364  C 36.8779465688842 11.9128787878788  36.6334904836738 11.3172348484848  36.144578313253 10.8267045454545  C 35.6556661428322 10.3361742424242  35.0619870787498 10.0909090909091  34.3635411210058 10  L 19.2771084337349 10  C 18.5786624759909 10.0909090909091  17.9849834119085 9.84564393939394  17.4960712414877 9.35511363636363  C 17.0071590710669 8.86458333333333  16.7627029858565 8.26893939393939  16.7627029858565 7.56818181818182  L 16.7627029858565 5.88636363636363  C 16.7627029858565 5.18560606060606  16.5182469006461 4.58996212121212  16.0293347302252 4.09943181818182  C 15.5404225598044 3.60890151515152  14.946743495722 3.36363636363636  14.248297537978 3.36363636363636  L 5.86694604504976 3.36363636363636  C 5.16850008730574 3.36363636363636  4.57482102322333 3.60890151515152  4.08590885280251 4.09943181818182  C 3.5969966823817 4.58996212121212  3.35254059717129 5.18560606060606  4 5.88636363636363  L 4 28.3018465909091  L 10.0576217915139 20.0241477272727  C 10.8259123450323 19.0956439393939  11.8386589837611 18.3291903409091  13.0958617077004 17.7247869318182  Z M 49.607124148769 19.3146306818182  C 49.869041382923 19.8752367424242  50 20.4708806818182  50 21.1015625  C 50 22.1877367424242  49.5983935742972 23.2388731060606  48.7951807228916 24.2549715909091  L 41.0686223153484 33.7940340909091  C 40.3177929107735 34.7225378787879  39.3050462720447 35.4889914772727  38.0303823991619 36.0933948863636  C 36.755718526279 36.6977982954545  35.533438100227 37  34.3635411210058 37  L 5.86694604504976 37  C 4.26052034223852 37  2.88108957569408 36.421875  1.72865374541645 35.265625  C 0.576217915138816 34.109375  0 32.7253787878788  0 31.1136363636364  L 0 5.88636363636363  C 0 4.27462121212121  0.576217915138816 2.890625  1.72865374541645 1.734375  C 2.88108957569408 0.578125  4.26052034223852 0  5.86694604504976 0  L 14.248297537978 0  C 15.8547232407892 0  17.2341540073337 0.578125  18.3865898376113 1.734375  C 19.539025667889 2.890625  20.1152435830278 4.27462121212121  20.1152435830278 5.88636363636363  L 20.1152435830278 7  L 34.3635411210058 7  C 35.969966823817 6.72727272727273  37.3493975903614 7.30539772727273  38.5018334206391 8.46164772727272  C 39.6542692509167 9.61789772727272  40.2304871660555 11.0018939393939  40.2304871660555 12.6136363636364  L 40.2304871660555 16.8181818181818  L 45.2592980618125 16.8181818181818  C 46.2022001047669 16.8181818181818  47.0665269774751 17.0327888257576  47.8522786799371 17.4620028409091  C 48.6380303823992 17.8912168560606  49.2229788720098 18.508759469697  49.607124148769 19.3146306818182  Z " fill-rule="nonzero" fill="#ffffff" stroke="none" fill-opacity="0.698039215686274" transform="matrix(1 0 0 1 114 376 )" />
  </g>
</svg>