<?xml version="1.0" encoding="utf-8"?>
<svg version="1.1" xmlns:xlink="http://www.w3.org/1999/xlink" width="50px" height="38px" xmlns="http://www.w3.org/2000/svg">
  <g transform="matrix(1 0 0 1 -114 -455 )">
    <path d="M 4 34.8333333333333  L 50 34.8333333333333  L 50 38  L 0 38  L 0 0  L 4 0  L 4 34.8333333333333  Z M 46.6552734375 3.38932291666667  C 46.8017578125 3.53776041666667  46.875 3.72743055555555  46 3.95833333333333  L 46 14.7200520833333  C 46.875 15.06640625  46.71630859375 15.3096788194444  46.39892578125 15.4498697916667  C 46.08154296875 15.5900607638889  45.7926432291667 15.5282118055556  45.5322265625 15.2643229166667  L 42.578125 12.2708333333333  L 27.1240234375 27.9309895833333  C 26.9612630208333 28.0959201388889  26.7740885416667 28.1783854166667  26.5625 28.1783854166667  C 26.3509114583333 28.1783854166667  26.1637369791667 28.0959201388889  26.0009765625 27.9309895833333  L 20.3125 22.1666666666667  L 10.15625 32.4583333333333  L 5.46875 27.7083333333333  L 19.7509765625 13.2356770833333  C 19.9137369791667 13.0707465277778  20.1009114583333 12.98828125  20.3125 12.98828125  C 20.5240885416667 12.98828125  20.7112630208333 13.0707465277778  20.8740234375 13.2356770833333  L 26.5625 19  L 37.890625 7.52083333333333  L 34.9365234375 4.52734375  C 34.6761067708333 4.26345486111111  34.6150716145833 3.970703125  34.75341796875 3.64908854166667  C 34.8917643229167 3.32747395833333  35.1318359375 3.16666666666667  35.4736328125 3.16666666666667  L 46.09375 3.16666666666667  C 46.3216145833333 3.16666666666667  46.5087890625 3.24088541666667  46.6552734375 3.38932291666667  Z " fill-rule="nonzero" fill="#ffffff" stroke="none" fill-opacity="0.615686274509804" transform="matrix(1 0 0 1 114 455 )" />
  </g>
</svg>