<?xml version="1.0" encoding="utf-8"?>
<svg version="1.1" xmlns:xlink="http://www.w3.org/1999/xlink" width="79px" height="79px" xmlns="http://www.w3.org/2000/svg">
  <g transform="matrix(1 0 0 1 -1386 -204 )">
    <path d="M 1386 204  L 1465 204  L 1465 283  L 1386 283  L 1386 204  " fill-rule="nonzero" fill="#cccccc" stroke="none" />
    <path d="M 1392 210  L 1459 210  L 1459 277  L 1392 277  L 1392 210  " fill-rule="nonzero" fill="#ffffff" stroke="none" />
    <path d="M 1433.005 227.7  C 1429.687 227.7  1427.08 225.093  1427.08 221.775  C 1427.08 218.457  1429.687 215.85  1433.005 215.85  C 1436.323 215.85  1438.93 218.457  1438.93 221.775  C 1438.93 225.093  1436.323 227.7  1433.005 227.7  " fill-rule="nonzero" fill="#cccccc" stroke="none" />
    <path d="M 1394 275  L 1394 240.35  L 1409.75 224.6  L 1431.8 237.2  L 1444.4 234.05  L 1457 237.2  L 1457 275  L 1394 275  " fill-rule="nonzero" fill="#169bd5" stroke="none" />
  </g>
</svg>