<?xml version="1.0" encoding="utf-8"?>
<svg version="1.1" xmlns:xlink="http://www.w3.org/1999/xlink" width="30px" height="30px" xmlns="http://www.w3.org/2000/svg">
  <g transform="matrix(1 0 0 1 -203 -205 )">
    <path d="M 30 15  C 30 6.71590909090909  23.2840909090909 0  15 0  C 6.71590909090909 0  0 6.71590909090909  0 15  C 0 23.2840909090909  6.71590909090909 30  15 30  C 23.2840909090909 30  30 23.2840909090909  30 15  Z M 17.7272727272727 15  C 17.7272727272727 16.0063636363636  17.175 16.8763636363636  16.3636363636364 17.3495454545455  L 16.3636363636364 20.4545454545455  L 13.6363636363636 20.4545454545455  L 13.6363636363636 17.3495454545455  C 12.825 16.8777272727273  12.2727272727273 16.0077272727273  12.2727272727273 15  C 12.2727272727273 13.9936363636364  12.825 13.1236363636364  13.6363636363636 12.6504545454545  L 13.6363636363636 4.09090909090909  C 13.6363636363636 3.33818181818182  14.2472727272727 2.72727272727273  15 2.72727272727273  C 15.7527272727273 2.72727272727273  16.3636363636364 3.33818181818182  16.3636363636364 4.09090909090909  L 16.3636363636364 12.6504545454545  C 17.175 13.1222727272727  17.7272727272727 13.9922727272727  17.7272727272727 15  Z " fill-rule="nonzero" fill="#aaaaaa" stroke="none" transform="matrix(1 0 0 1 203 205 )" />
  </g>
</svg>