<?xml version="1.0" encoding="utf-8"?>
<svg version="1.1" xmlns:xlink="http://www.w3.org/1999/xlink" width="30px" height="30px" xmlns="http://www.w3.org/2000/svg">
  <g transform="matrix(1 0 0 1 -538 -223 )">
    <path d="M 538 223  L 568 223  L 568 253  L 538 253  L 538 223  " fill-rule="nonzero" fill="#cccccc" stroke="none" />
    <path d="M 540 225  L 566 225  L 566 251  L 540 251  L 540 225  " fill-rule="nonzero" fill="#ffffff" stroke="none" />
    <path d="M 555.85 232  C 554.59 232  553.6 231.01  553.6 229.75  C 553.6 228.49  554.59 227.5  555.85 227.5  C 557.11 227.5  558.1 228.49  558.1 229.75  C 558.1 231.01  557.11 232  555.85 232  " fill-rule="nonzero" fill="#cccccc" stroke="none" />
    <path d="M 541 250  L 541 236.8  L 547 230.8  L 555.4 235.6  L 560.2 234.4  L 565 235.6  L 565 250  L 541 250  " fill-rule="nonzero" fill="#169bd5" stroke="none" />
  </g>
</svg>