<?xml version="1.0" encoding="utf-8"?>
<svg version="1.1" xmlns:xlink="http://www.w3.org/1999/xlink" width="276px" height="276px" xmlns="http://www.w3.org/2000/svg">
  <g transform="matrix(1 0 0 1 -1915 -677 )">
    <path d="M 213.828125 115  C 213.828125 118.114583333333  212.690104166667 120.809895833333  210.4140625 123.0859375  L 134.5859375 198.9140625  C 132.309895833333 201.190104166667  129.614583333333 202.328125  126.5 202.328125  C 123.385416666667 202.328125  120.690104166667 201.190104166667  118.4140625 198.9140625  L 65.5859375 146.0859375  C 63.3098958333333 143.809895833333  62.171875 141.114583333333  62.171875 138  C 62.171875 134.885416666667  63.3098958333333 132.190104166667  65.5859375 129.9140625  L 83.9140625 111.5859375  C 86.1901041666667 109.309895833333  88.8854166666667 108.171875  92 108.171875  C 95.1145833333333 108.171875  97.8098958333333 109.309895833333  100.0859375 111.5859375  L 126.5 138  L 175.9140625 88.5859375  C 178.190104166667 86.3098958333333  180.885416666667 85.171875  184 85.171875  C 187.114583333333 85.171875  189.809895833333 86.3098958333333  192.0859375 88.5859375  L 210.4140625 106.9140625  C 212.690104166667 109.190104166667  213.828125 111.885416666667  213.828125 115  Z M 222.6328125 187.0546875  C 231.377604166667 172.080729166667  235.75 155.729166666667  235.75 138  C 235.75 120.270833333333  231.377604166667 103.919270833333  222.6328125 88.9453125  C 213.888020833333 73.9713541666666  202.028645833333 62.1119791666666  187.0546875 53.3671875  C 172.080729166667 44.6223958333333  155.729166666667 40.25  138 40.25  C 120.270833333333 40.25  103.919270833333 44.6223958333333  88.9453125 53.3671875  C 73.9713541666667 62.1119791666666  62.1119791666667 73.9713541666666  53.3671875 88.9453125  C 44.6223958333333 103.919270833333  40.25 120.270833333333  40.25 138  C 40.25 155.729166666667  44.6223958333333 172.080729166667  53.3671875 187.0546875  C 62.1119791666667 202.028645833333  73.9713541666667 213.888020833333  88.9453125 222.6328125  C 103.919270833333 231.377604166667  120.270833333333 235.75  138 235.75  C 155.729166666667 235.75  172.080729166667 231.377604166667  187.0546875 222.6328125  C 202.028645833333 213.888020833333  213.888020833333 202.028645833333  222.6328125 187.0546875  Z M 257.4921875 68.73046875  C 269.830729166667 89.8736979166666  276 112.963541666667  276 138  C 276 163.036458333333  269.830729166667 186.126302083333  257.4921875 207.26953125  C 245.153645833333 228.412760416667  228.412760416667 245.153645833333  207.26953125 257.4921875  C 186.126302083333 269.830729166667  163.036458333333 276  138 276  C 112.963541666667 276  89.8736979166667 269.830729166667  68.73046875 257.4921875  C 47.5872395833333 245.153645833333  30.8463541666667 228.412760416667  18.5078125 207.26953125  C 6.16927083333333 186.126302083333  0 163.036458333333  0 138  C 0 112.963541666667  6.16927083333333 89.8736979166666  18.5078125 68.73046875  C 30.8463541666667 47.5872395833333  47.5872395833333 30.8463541666666  68.73046875 18.5078125  C 89.8736979166667 6.16927083333331  112.963541666667 0  138 0  C 163.036458333333 0  186.126302083333 6.16927083333331  207.26953125 18.5078125  C 228.412760416667 30.8463541666666  245.153645833333 47.5872395833333  257.4921875 68.73046875  Z " fill-rule="nonzero" fill="#000000" stroke="none" transform="matrix(1 0 0 1 1915 677 )" />
  </g>
</svg>