<?xml version="1.0" encoding="utf-8"?>
<svg version="1.1" xmlns:xlink="http://www.w3.org/1999/xlink" width="25px" height="19px" xmlns="http://www.w3.org/2000/svg">
  <g transform="matrix(1 0 0 1 -218 -1118 )">
    <path d="M 11.6591928251121 14.25  L 12.4439461883408 14.25  L 14.0695067264574 12.6846590909091  L 11.9394618834081 10.6335227272727  L 10.3139013452915 12.1988636363636  L 10.3139013452915 12.9545454545455  L 11.6591928251121 12.9545454545455  L 11.6591928251121 14.25  Z M 18.5958520179372 4.97940340909091  C 18.7546711509716 4.8264678030303  18.7593423019432 4.6780303030303  18.609865470852 4.53409090909091  C 18.4603886397608 4.39015151515151  18.3062406576981 4.39464962121212  18.1474215246637 4.54758522727273  L 13.2427130044843 9.27059659090909  C 13.0838938714499 9.4235321969697  13.0792227204783 9.5719696969697  13.2286995515695 9.71590909090909  C 13.3781763826607 9.85984848484848  13.5323243647235 9.85535037878788  13.6911434977578 9.70241477272727  L 18.5958520179372 4.97940340909091  Z M 19.4506726457399 12.1583806818182  C 19.6375186846039 12.2303503787879  19.7309417040359 12.3607954545455  19.7309417040359 12.5497159090909  L 19.7309417040359 15.1136363636364  C 19.7309417040359 16.1841856060606  19.3362294469357 17.0995501893939  18.5468049327354 17.8597301136364  C 17.7573804185351 18.6199100378788  16.8068011958147 19  15.695067264574 19  L 4.03587443946188 19  C 2.92414050822123 19  1.97356128550075 18.6199100378788  1.18413677130045 17.8597301136364  C 0.394712257100149 17.0995501893939  0 16.1841856060606  0 15.1136363636364  L 0 3.88636363636364  C 0 2.81581439393939  0.394712257100149 1.90044981060606  1.18413677130045 1.14026988636364  C 1.97356128550075 0.38008996212121  2.92414050822123 0  4.03587443946188 0  L 15.695067264574 0  C 16.2836322869955 0  16.8301569506726 0.11245265151515  17.3346412556054 0.337357954545454  C 17.4747757847534 0.400331439393938  17.5588565022422 0.503787878787878  17.5868834080717 0.647727272727272  C 17.6149103139013 0.800662878787878  17.572869955157 0.931107954545454  17.4607623318386 1.0390625  L 16.7741031390135 1.70028409090909  C 16.6433109118087 1.82623106060606  16.4938340807175 1.86221590909091  16.3256726457399 1.80823863636364  C 16.1107997010463 1.75426136363636  15.9005979073244 1.72727272727273  15.695067264574 2  L 4.03587443946188 2  C 3.41928251121076 1.72727272727273  2.89144245142003 1.93868371212121  2.45235426008969 2.36150568181818  C 2.01326606875934 2.78432765151515  1.79372197309417 3.29261363636364  2 3.88636363636364  L 2 15.1136363636364  C 1.79372197309417 15.7073863636364  2.01326606875934 16.2156723484848  2.45235426008969 16.6384943181818  C 2.89144245142003 17.0613162878788  3.41928251121076 17.2727272727273  4.03587443946188 17  L 15.695067264574 17  C 16.3116591928251 17.2727272727273  16.8394992526158 17.0613162878788  17.2785874439462 16.6384943181818  C 17.7176756352765 16.2156723484848  17.9372197309417 15.7073863636364  17.9372197309417 15.1136363636364  L 17.9372197309417 13.4133522727273  C 17.9372197309417 13.2964015151515  17.9792600896861 13.1974431818182  18.0633408071749 13.1164772727273  L 18.960201793722 12.2528409090909  C 19.10033632287 12.1178977272727  19.2638266068759 12.0864109848485  19.4506726457399 12.1583806818182  Z M 8.96860986547085 11.6590909090909  L 18.3856502242152 2.59090909090909  L 22.4215246636771 6.47727272727273  L 13.0044843049327 15.5454545454545  L 8.96860986547085 15.5454545454545  L 8.96860986547085 11.6590909090909  Z M 25 3.45454545454545  C 25 3.81439393939394  24.8692077727952 4.12026515151515  24.6076233183856 4.37215909090909  L 23.3183856502242 5.61363636363636  L 19.2825112107623 1.72727272727273  L 20.5717488789238 0.485795454545454  C 20.8333333333333 0.233901515151513  21.1509715994021 0.107954545454546  21.52466367713 0.107954545454546  C 21.898355754858 0.107954545454546  22.2159940209268 0.233901515151513  22.4775784753363 0.485795454545454  L 24.6076233183856 2.53693181818182  C 24.8692077727952 2.78882575757575  25 3.09469696969697  25 3.45454545454545  Z " fill-rule="nonzero" fill="#02a7f0" stroke="none" transform="matrix(1 0 0 1 218 1118 )" />
  </g>
</svg>