<?xml version="1.0" encoding="utf-8"?>
<svg version="1.1" xmlns:xlink="http://www.w3.org/1999/xlink" width="14px" height="14px" xmlns="http://www.w3.org/2000/svg">
  <g transform="matrix(1 0 0 1 -398 -90 )">
    <path d="M 405 91  C 408.36 91  411 93.64  411 97  C 411 100.36  408.36 103  405 103  C 401.64 103  399 100.36  399 97  C 399 93.64  401.64 91  405 91  Z " fill-rule="nonzero" fill="#0d0d51" stroke="none" />
    <path d="M 405 91  C 408.36 91  411 93.64  411 97  C 411 100.36  408.36 103  405 103  C 401.64 103  399 100.36  399 97  C 399 93.64  401.64 91  405 91  Z " stroke-width="2" stroke="#ffffff" fill="none" />
  </g>
</svg>