<?xml version="1.0" encoding="utf-8"?>
<svg version="1.1" xmlns:xlink="http://www.w3.org/1999/xlink" width="30px" height="23px" xmlns="http://www.w3.org/2000/svg">
  <g transform="matrix(1 0 0 1 -369 -344 )">
    <path d="M 13.9910313901345 17.25  L 14.932735426009 17.25  L 16.8834080717489 15.3551136363636  L 14.3273542600897 12.8721590909091  L 12.3766816143498 14.7670454545455  L 12.3766816143498 15.6818181818182  L 13.9910313901345 15.6818181818182  L 13.9910313901345 17.25  Z M 22.3150224215247 6.02769886363636  C 22.5056053811659 5.84256628787879  22.5112107623318 5.66287878787879  22.3318385650224 5.48863636363636  C 22.152466367713 5.31439393939394  21.9674887892377 5.31983901515151  21.7769058295964 5.50497159090909  L 15.8912556053812 11.2223011363636  C 15.7006726457399 11.4074337121212  15.695067264574 11.5871212121212  15.8744394618834 11.7613636363636  C 16.0538116591928 11.9356060606061  16.2387892376682 11.9301609848485  16.4293721973094 11.7450284090909  L 22.3150224215247 6.02769886363636  Z M 23.3408071748879 14.7180397727273  C 23.5650224215247 14.8051609848485  23.677130044843 14.9630681818182  23.677130044843 15.1917613636364  L 23.677130044843 18.2954545454545  C 23.677130044843 19.5913825757576  23.2034753363229 20.6994554924242  22.2561659192825 21.6196732954545  C 21.3088565022422 22.5398910984848  20.1681614349776 23  18.8340807174888 23  L 4.84304932735426 23  C 3.50896860986547 23  2.3682735426009 22.5398910984848  1.42096412556054 21.6196732954545  C 0.473654708520179 20.6994554924242  0 19.5913825757576  0 18.2954545454545  L 0 4.70454545454546  C 0 3.40861742424242  0.473654708520179 2.30054450757576  1.42096412556054 1.38032670454546  C 2.3682735426009 0.460108901515149  3.50896860986547 0  4.84304932735426 0  L 18.8340807174888 0  C 19.5403587443946 0  20.1961883408072 0.136126893939393  20.8015695067265 0.408380681818181  C 20.969730941704 0.484611742424241  21.0706278026906 0.609848484848484  21.1042600896861 0.784090909090908  C 21.1378923766816 0.969223484848484  21.0874439461883 1.12713068181818  20.9529147982063 1.2578125  L 20.1289237668161 2.05823863636364  C 19.9719730941704 2.21070075757576  19.792600896861 2.25426136363636  19.5908071748879 2.18892045454546  C 19.3329596412556 2.12357954545454  19.0807174887892 2.09090909090909  18.8340807174888 2  L 4.84304932735426 2  C 4.10313901345291 2.09090909090909  3.46973094170404 2.34682765151515  2.94282511210762 2.85866477272727  C 2.41591928251121 3.37050189393939  2.152466367713 3.98579545454546  2.152466367713 4.70454545454546  L 2.152466367713 18.2954545454545  C 2.152466367713 19.0142045454545  2.41591928251121 19.6294981060606  2.94282511210762 20.1413352272727  C 3.46973094170404 20.6531723484848  4.10313901345291 20.9090909090909  4.84304932735426 21  L 18.8340807174888 21  C 19.5739910313901 20.9090909090909  20.207399103139 20.6531723484848  20.7343049327354 20.1413352272727  C 21.2612107623318 19.6294981060606  21.52466367713 19.0142045454545  21.52466367713 18.2954545454545  L 21.52466367713 16.2372159090909  C 21.52466367713 16.0956439393939  21.5751121076233 15.9758522727273  21.6760089686099 15.8778409090909  L 22.7522421524664 14.8323863636364  C 22.9204035874439 14.6690340909091  23.1165919282511 14.6309185606061  23.3408071748879 14.7180397727273  Z M 10.762331838565 14.1136363636364  L 22.0627802690583 3.13636363636364  L 26.9058295964126 7.84090909090909  L 15.6053811659193 18.8181818181818  L 10.762331838565 18.8181818181818  L 10.762331838565 14.1136363636364  Z M 30 4.18181818181818  C 30 4.61742424242424  29.8430493273543 4.98768939393939  29.5291479820628 5.29261363636364  L 27.9820627802691 6.79545454545455  L 23.1390134529148 2.09090909090909  L 24.6860986547085 0.588068181818181  C 25 0.283143939393937  25.3811659192825 0.130681818181819  25.8295964125561 0.130681818181819  C 26.2780269058296 0.130681818181819  26.6591928251121 0.283143939393937  26.9730941704036 0.588068181818181  L 29.5291479820628 3.07102272727273  C 29.8430493273543 3.37594696969697  30 3.74621212121212  30 4.18181818181818  Z " fill-rule="nonzero" fill="#000000" stroke="none" transform="matrix(1 0 0 1 369 344 )" />
  </g>
</svg>