<?xml version="1.0" encoding="utf-8"?>
<svg version="1.1" xmlns:xlink="http://www.w3.org/1999/xlink" width="50px" height="50px" xmlns="http://www.w3.org/2000/svg">
  <g transform="matrix(1 0 0 1 -78 -331 )">
    <path d="M 78 331  L 128 331  L 128 381  L 78 381  L 78 331  " fill-rule="nonzero" fill="#cccccc" stroke="none" />
    <path d="M 82 335  L 124 335  L 124 377  L 82 377  L 82 335  " fill-rule="nonzero" fill="#ffffff" stroke="none" />
    <path d="M 107.75 346  C 105.65 346  104 344.35  104 342.25  C 104 340.15  105.65 338.5  107.75 338.5  C 109.85 338.5  111.5 340.15  111.5 342.25  C 111.5 344.35  109.85 346  107.75 346  " fill-rule="nonzero" fill="#cccccc" stroke="none" />
    <path d="M 84 376  L 84 354.55  L 93.75 344.8  L 107.4 352.6  L 115.2 350.65  L 123 352.6  L 123 376  L 84 376  " fill-rule="nonzero" fill="#169bd5" stroke="none" />
  </g>
</svg>