<?xml version="1.0" encoding="utf-8"?>
<svg version="1.1" xmlns:xlink="http://www.w3.org/1999/xlink" width="307px" height="35px" xmlns="http://www.w3.org/2000/svg">
  <defs>
    <linearGradient gradientUnits="userSpaceOnUse" x1="234.5" y1="235" x2="234.5" y2="270" id="LinearGradient196">
      <stop id="Stop197" stop-color="#0000ff" offset="0" />
      <stop id="Stop198" stop-color="#1b96f0" offset="1" />
    </linearGradient>
  </defs>
  <g transform="matrix(1 0 0 1 -81 -235 )">
    <path d="M 81.5 245  A 9.5 9.5 0 0 1 91 235.5 L 378 235.5  A 9.5 9.5 0 0 1 387.5 245 L 387.5 260  A 9.5 9.5 0 0 1 378 269.5 L 91 269.5  A 9.5 9.5 0 0 1 81.5 260 L 81.5 245  Z " fill-rule="nonzero" fill="#ffffff" stroke="none" />
    <path d="M 81.5 245  A 9.5 9.5 0 0 1 91 235.5 L 378 235.5  A 9.5 9.5 0 0 1 387.5 245 L 387.5 260  A 9.5 9.5 0 0 1 378 269.5 L 91 269.5  A 9.5 9.5 0 0 1 81.5 260 L 81.5 245  Z " stroke-width="1" stroke="url(#LinearGradient196)" fill="none" />
  </g>
</svg>