<?xml version="1.0" encoding="utf-8"?>
<svg version="1.1" xmlns:xlink="http://www.w3.org/1999/xlink" width="15px" height="15px" xmlns="http://www.w3.org/2000/svg">
  <g transform="matrix(1 0 0 1 -812 -186 )">
    <path d="M 14.8496993987976 6.8944099378882  C 14.9498997995992 6.99792960662526  15 7.11697722567288  15 7.25155279503106  C 15 7.38612836438923  14.9498997995992 7.50517598343685  14.8496993987976 7.60869565217391  L 7.84569138276553 14.8447204968944  C 7.74549098196393 14.9482401656315  7.63026052104208 15  7.5 15  C 7.36973947895792 15  7.25450901803607 14.9482401656315  7.15430861723447 14.8447204968944  L 0.150300601202405 7.60869565217391  C 0.0501002004008018 7.50517598343685  0 7.38612836438923  0 7.25155279503106  C 0 7.11697722567288  0.0501002004008018 6.99792960662526  0.150300601202405 6.8944099378882  L 0.901803607214429 6.11801242236025  C 1.00200400801603 6.01449275362319  1.11723446893788 5.96273291925466  1.24749498997996 5.96273291925466  C 1.37775551102204 5.96273291925466  1.49298597194389 6.01449275362319  1.59318637274549 6.11801242236025  L 7.5 12.2204968944099  L 13.4068136272545 6.11801242236025  C 13.5070140280561 6.01449275362319  13.622244488978 5.96273291925466  13.75250501002 5.96273291925466  C 13.8827655310621 5.96273291925466  13.997995991984 6.01449275362319  14.0981963927856 6.11801242236025  L 14.8496993987976 6.8944099378882  Z M 14.8496993987976 0.93167701863354  C 14.9498997995992 1.0351966873706  15 1.15424430641822  15 1.2888198757764  C 15 1.42339544513457  14.9498997995992 1.54244306418219  14.8496993987976 1.64596273291925  L 7.84569138276553 8.88198757763975  C 7.74549098196393 8.98550724637681  7.63026052104208 9.03726708074534  7.5 9.03726708074534  C 7.36973947895792 9.03726708074534  7.25450901803607 8.98550724637681  7.15430861723447 8.88198757763975  L 0.150300601202405 1.64596273291925  C 0.0501002004008018 1.54244306418219  0 1.42339544513457  0 1.2888198757764  C 0 1.15424430641822  0.0501002004008018 1.0351966873706  0.150300601202405 0.93167701863354  L 0.901803607214429 0.15527950310559  C 1.00200400801603 0.0517598343685288  1.11723446893788 0  1.24749498997996 0  C 1.37775551102204 0  1.49298597194389 0.0517598343685288  1.59318637274549 0.15527950310559  L 7.5 6.25776397515528  L 13.4068136272545 0.15527950310559  C 13.5070140280561 0.0517598343685288  13.622244488978 0  13.75250501002 0  C 13.8827655310621 0  13.997995991984 0.0517598343685288  14.0981963927856 0.15527950310559  L 14.8496993987976 0.93167701863354  Z " fill-rule="nonzero" fill="#02a7f0" stroke="none" transform="matrix(1 0 0 1 812 186 )" />
  </g>
</svg>