<?xml version="1.0" encoding="utf-8"?>
<svg version="1.1" xmlns:xlink="http://www.w3.org/1999/xlink" width="15px" height="14px" xmlns="http://www.w3.org/2000/svg">
  <g transform="matrix(1 0 0 1 -812 -331 )">
    <path d="M 14.8496993987976 12.463768115942  C 14.9498997995992 12.56038647343  15 12.6714975845411  15 12.7971014492754  C 15 12.9227053140097  14.9498997995992 13.0338164251208  14.8496993987976 13.1304347826087  L 14.0981963927856 13.8550724637681  C 13.997995991984 13.951690821256  13.8827655310621 14  13.75250501002 14  C 13.622244488978 14  13.5070140280561 13.951690821256  13.4068136272545 13.8550724637681  L 7.5 8.15942028985507  L 1.59318637274549 13.8550724637681  C 1.49298597194389 13.951690821256  1.37775551102204 14  1.24749498997996 14  C 1.11723446893788 14  1.00200400801603 13.951690821256  0.901803607214429 13.8550724637681  L 0.150300601202405 13.1304347826087  C 0.0501002004008018 13.0338164251208  0 12.9227053140097  0 12.7971014492754  C 0 12.6714975845411  0.0501002004008018 12.56038647343  0.150300601202405 12.463768115942  L 7.15430861723447 5.71014492753623  C 7.25450901803607 5.61352657004831  7.36973947895792 5.56521739130435  7.5 5.56521739130435  C 7.63026052104208 5.56521739130435  7.74549098196393 5.61352657004831  7.84569138276553 5.71014492753623  L 14.8496993987976 12.463768115942  Z M 14.8496993987976 6.89855072463768  C 14.9498997995992 6.9951690821256  15 7.10628019323672  15 7.23188405797101  C 15 7.35748792270531  14.9498997995992 7.46859903381642  14.8496993987976 7.56521739130435  L 14.0981963927856 8.28985507246377  C 13.997995991984 8.38647342995169  13.8827655310621 8.43478260869565  13.75250501002 8.43478260869565  C 13.622244488978 8.43478260869565  13.5070140280561 8.38647342995169  13.4068136272545 8.28985507246377  L 7.5 2.59420289855072  L 1.59318637274549 8.28985507246377  C 1.49298597194389 8.38647342995169  1.37775551102204 8.43478260869565  1.24749498997996 8.43478260869565  C 1.11723446893788 8.43478260869565  1.00200400801603 8.38647342995169  0.901803607214429 8.28985507246377  L 0.150300601202405 7.56521739130435  C 0.0501002004008018 7.46859903381642  0 7.35748792270531  0 7.23188405797101  C 0 7.10628019323672  0.0501002004008018 6.9951690821256  0.150300601202405 6.89855072463768  L 7.15430861723447 0.144927536231884  C 7.25450901803607 0.0483091787439602  7.36973947895792 0  7.5 0  C 7.63026052104208 0  7.74549098196393 0.0483091787439602  7.84569138276553 0.144927536231884  L 14.8496993987976 6.89855072463768  Z " fill-rule="nonzero" fill="#02a7f0" stroke="none" transform="matrix(1 0 0 1 812 331 )" />
  </g>
</svg>