<?xml version="1.0" encoding="utf-8"?>
<svg version="1.1" xmlns:xlink="http://www.w3.org/1999/xlink" width="19px" height="9px" xmlns="http://www.w3.org/2000/svg">
  <g transform="matrix(1 0 0 1 -251 -979 )">
    <path d="M 18.678112051105 8.73671025815219  C 18.9712966160221 8.46157438858694  18.9712966160221 7.98772927989131  18.678112051105 7.714504076087  L 11.088117230663 0.669879415760875  C 10.6637171961326 0.274371603260875  10.0999007251381 0.0871263586956275  9.50123014502762 0.0871263586956275  L 9.49917990331491 0.0871263586956275  C 8.89845908149172 0.0871263586956275  8.33464261049724 0.278192934782624  7.91024257596685 0.673700747282624  L 0.316147272099457 7.771824048913  C 0.025012948895025 8.04504925271738  0.025012948895025 8.47877038043475  0.318197513812152 8.75008491847825  C 0.463764675414367 8.8857421875  0.654437154696126 8.94879415760869  0.845109633977899 8.94879415760869  C 1.03783235497238 8.94879415760869  1.22850483425414 8.8780995244565  1.37612223756906 8.74244225543475  L 8.97021754143647 1.76278023097825  C 9.2962059737569 1.458984375  9.8108166436464 1.55642832880437  10.0301925069061 1.76086956521738  L 17.6201873273481 8.769191576087  C 17.9133718922652 9.04241677989131  18.3869777279006 9.00802479619563  18.678112051105 8.73671025815219  Z " fill-rule="nonzero" fill="#000000" stroke="none" transform="matrix(1 0 0 1 251 979 )" />
  </g>
</svg>