<?xml version="1.0" encoding="utf-8"?>
<svg version="1.1" xmlns:xlink="http://www.w3.org/1999/xlink" width="13px" height="13px" xmlns="http://www.w3.org/2000/svg">
  <g transform="matrix(1 0 0 1 -254 -984 )">
    <path d="M 12.34146875 5.21932164634148  L 7.82396875000001 0.638687754065074  C 7.45428124999999 0.227896341463406  7.06225000000001 0.0875254065040849  6.60318750000001 0.0875254065040849  C 6.192875 0.0875254065040849  5.79474999999999 0.174225101626064  5.38240625 0.640752032520311  L 0.751156249999994 5.24822154471548  C 0.332718749999998 5.67552718495938  0.0341250000000031 6.1895325203252  0.0341250000000031 6.790237550813  L 0.0341250000000031 12.1676829268293  C 0.0341250000000031 12.5846671747968  0.304281250000003 12.9211445630082  0.714593749999992 12.9211445630082  C 1.12490625000001 12.9211445630082  1.39506249999999 12.5846671747968  1.39506249999999 12.1676829268293  L 1.39506249999999 6.790237550813  C 1.39506249999999 6.5900025406504  1.60225 6.40008892276421  1.740375 6.25971798780489  L 6.36553125 1.60064151422762  C 6.42646875 1.53664888211381  6.53209374999999 1.52839176829269  6.56865625 1.52839176829269  C 6.60521875000001 1.52839176829269  6.69459375000001 1.53664888211381  6.75756250000001 1.60064151422762  L 11.344125 6.23081808943084  C 11.48428125 6.37325330284551  11.5919375 6.5631669207317  11.5919375 6.7634019308943  L 11.5919375 12.1676829268293  C 11.5919375 12.5846671747968  11.86209375 12.9211445630082  12.27240625 12.9211445630082  C 12.68271875 12.9211445630082  12.952875 12.5846671747968  12.952875 12.1676829268293  L 12.952875 6.7654662093496  C 12.952875 6.1626969004065  12.75990625 5.64662728658539  12.34146875 5.21932164634148  Z " fill-rule="nonzero" fill="#000000" stroke="none" transform="matrix(1 0 0 1 254 984 )" />
  </g>
</svg>