<?xml version="1.0" encoding="utf-8"?>
<svg version="1.1" xmlns:xlink="http://www.w3.org/1999/xlink" width="20px" height="18px" xmlns="http://www.w3.org/2000/svg">
  <g transform="matrix(1 0 0 1 -517 -979 )">
    <path d="M 19.589655281869 5.40445657694261  C 19.6346495683088 3.58325926866434  19.0711496952768 2.09844781615033  17.9612906297613 1.11071609954291  C 17.1621063991874 0.401520441848675  16.1100971305231 0.0501364906043591  15.0023806500762 0.120841797866944  C 13.7789645759269 0.200117445403748  12.5684040121889 0.793613509395641  11.5035392331132 1.83705243778564  C 11.1971495683088 2.13701434738442  11.1928643981717 2.62766632808535  11.4928263077704 2.9340559928898  C 11.7927882173692 3.24044565769424  12.2834401980701 3.24473082783135  12.5898298628746 2.94476891823263  C 14.2653313864906 1.30354875571356  15.9772568562722 1.42353351955308  16.9285646267141 2.26771203656682  C 18.5162201625191 3.67753301168108  18.3962353986795 6.80356462671409  16.6286027171153 10.0474384205181  L 16.6178897917725 10.0667216861351  C 16.1015267902489 11.0823070086338  15.2230669121382 12.1750253936008  14.0060785931945 13.3148806500762  C 12.9583544946673 14.2961846114779  11.6642331132555 15.2989144235653  10.265125063484 16.2137982478416  C 10.0058722701879 16.383062468258  9.6716289994921 16.383062468258  9.41237620619603 16.2137982478416  C 8.0132681564246 15.2967718384967  6.71914677501269 14.2940420264093  5.67142267648546 13.3148806500762  C 4.45443435754191 12.1750253936008  3.57383189436263 11.0823070086338  3.05961147790759 10.0667216861351  L 3.04889855256471 10.0474384205181  C 1.28555104113769 6.80999238191976  1.16770886236668 3.68181818181819  2.75107922803448 2.26556945149821  C 3.25887188928391 1.81134141696293  3.9852082275267 1.57565705942102  4.7393981716607 1.62065134586084  C 5.65213941086847 1.67421597257493  6.55631030980192 2.11558849669882  7.35549454037579 2.89977463179281  C 7.66188420518029 3.19973654139159  8.15253618588116 3.19545137125448  8.45249809547988 2.88906170644998  C 8.75246000507872 2.58267204164548  8.74817483494155 2.09202006094466  8.44178517013717 1.79205815134588  C 7.37049263585573 0.74219146775016  6.12136554088374 0.148695403758268  4.82938674454039 0.0715623412899618  C 3.66596305231076 0.00299961909598778  2.53039296597262 0.38223717623157  1.71621063991876 1.10857351447436  C 0.608494159471775 2.09844781615033  0.0471368715084282 3.58540185373283  0.0899885728796903 5.40659916201116  C 0.12855510411373 7.07995810055866  0.67919946673436 8.93757935500253  1.67978669375316 10.7802025139665  C 3.16031297613 13.6855478669376  6.62487303199595 16.24593702387  8.56176993397668 17.5122047993906  C 8.94957783138648 17.7671724225495  9.39523552564754 17.8935849415948  9.83875063483998 17.8935849415948  C 10.2822657440325 17.8935849415948  10.7279234382935 17.7671724225495  11.1157313357034 17.5122047993906  C 13.0504856526156 16.2437944388014  16.5150457084814 13.6855478669376  17.9977145759269 10.7802025139665  C 18.9983018029456 8.93757935500253  19.5489461655662 7.07995810055866  19.589655281869 5.40445657694261  Z " fill-rule="nonzero" fill="#0079fe" stroke="none" transform="matrix(1 0 0 1 517 979 )" />
  </g>
</svg>