<?xml version="1.0" encoding="utf-8"?>
<svg version="1.1" xmlns:xlink="http://www.w3.org/1999/xlink" width="20px" height="18px" xmlns="http://www.w3.org/2000/svg">
  <g transform="matrix(1 0 0 1 -226 -257 )">
    <path d="M 3.63636363636364 13.0909090909091  L 5.45454545454545 13.0909090909091  L 5.45454545454545 14.7272727272727  L 3.63636363636364 14.7272727272727  L 3.63636363636364 13.0909090909091  Z M 3.63636363636364 3.27272727272727  L 5.45454545454545 3.27272727272727  L 5.45454545454545 4.90909090909091  L 3.63636363636364 4.90909090909091  L 3.63636363636364 3.27272727272727  Z M 14.5454545454545 3.27272727272727  L 16.3636363636364 3.27272727272727  L 16.3636363636364 4.90909090909091  L 14.5454545454545 4.90909090909091  L 14.5454545454545 3.27272727272727  Z M 1.81818181818182 11.4545454545455  L 1.81818181818182 16.3508522727273  L 7.27272727272727 16.3508522727273  L 7.27272727272727 11.4545454545455  L 1.81818181818182 11.4545454545455  Z M 1.81818181818182 1.63636363636364  L 1.81818181818182 6.54545454545455  L 7.27272727272727 6.54545454545455  L 7.27272727272727 1.63636363636364  L 1.81818181818182 1.63636363636364  Z M 12.7272727272727 1.63636363636364  L 12.7272727272727 6.54545454545455  L 18.1818181818182 6.54545454545455  L 18.1818181818182 1.63636363636364  L 12.7272727272727 1.63636363636364  Z M 0 9.81818181818182  L 9.09090909090909 9.81818181818182  L 9.09090909090909 18  L 0 18  L 0 9.81818181818182  Z M 14.5454545454545 16.3636363636364  L 16.3636363636364 16.3636363636364  L 16.3636363636364 18  L 14.5454545454545 18  L 14.5454545454545 16.3636363636364  Z M 18.1818181818182 16.3636363636364  L 20 16.3636363636364  L 20 18  L 18.1818181818182 18  L 18.1818181818182 16.3636363636364  Z M 18.1818181818182 9.81818181818182  L 20 9.81818181818182  L 20 14.7272727272727  L 14.5454545454545 14.7272727272727  L 14.5454545454545 13.0909090909091  L 12.7272727272727 13.0909090909091  L 12.7272727272727 18  L 10.9090909090909 18  L 10.9090909090909 9.81818181818182  L 16.3636363636364 9.81818181818182  L 16.3636363636364 11.4545454545455  L 18.1818181818182 11.4545454545455  L 18.1818181818182 9.81818181818182  Z M 0 0  L 9.09090909090909 0  L 9.09090909090909 8.18181818181818  L 0 8.18181818181818  L 0 0  Z M 10.9090909090909 0  L 20 0  L 20 8.18181818181818  L 10.9090909090909 8.18181818181818  L 10.9090909090909 0  Z " fill-rule="nonzero" fill="#02a7f0" stroke="none" transform="matrix(1 0 0 1 226 257 )" />
  </g>
</svg>