<?xml version="1.0" encoding="utf-8"?>
<svg version="1.1" xmlns:xlink="http://www.w3.org/1999/xlink" width="12px" height="12px" viewBox="1063 374  12 12" xmlns="http://www.w3.org/2000/svg">
  <path d="M 1069 374  C 1072.36 374  1075 376.64  1075 380  C 1075 383.36  1072.36 386  1069 386  C 1065.64 386  1063 383.36  1063 380  C 1063 376.64  1065.64 374  1069 374  Z " fill-rule="nonzero" fill="#ffffff" stroke="none" />
  <path d="M 1069 374.5  C 1072.08 374.5  1074.5 376.92  1074.5 380  C 1074.5 383.08  1072.08 385.5  1069 385.5  C 1065.92 385.5  1063.5 383.08  1063.5 380  C 1063.5 376.92  1065.92 374.5  1069 374.5  Z " stroke-width="1" stroke="#797979" fill="none" />
  <path d="M 1069 383  C 1067.32 383  1066 381.68  1066 380  C 1066 378.32  1067.32 377  1069 377  C 1070.68 377  1072 378.32  1072 380  C 1072 381.68  1070.68 383  1069 383  " fill-rule="nonzero" fill="#797979" stroke="none" />
</svg>