<?xml version="1.0" encoding="utf-8"?>
<svg version="1.1" xmlns:xlink="http://www.w3.org/1999/xlink" width="30px" height="24px" xmlns="http://www.w3.org/2000/svg">
  <g transform="matrix(1 0 0 1 -1021 -291 )">
    <path d="M 13.9910313901345 18  L 14.932735426009 18  L 16.8834080717489 16.0227272727273  L 14.3273542600897 13.4318181818182  L 12.3766816143498 15.4090909090909  L 12.3766816143498 16.3636363636364  L 13.9910313901345 16.3636363636364  L 13.9910313901345 18  Z M 22.3150224215247 6.28977272727273  C 22.5056053811659 6.09659090909091  22.5112107623318 5.90909090909091  22.3318385650224 5.72727272727273  C 22.152466367713 5.54545454545454  21.9674887892377 5.55113636363636  21.7769058295964 5.74431818181818  L 15.8912556053812 11.7102272727273  C 15.7006726457399 11.9034090909091  15.695067264574 12.0909090909091  15.8744394618834 12.2727272727273  C 16.0538116591928 12.4545454545455  16.2387892376682 12.4488636363636  16.4293721973094 12.2556818181818  L 22.3150224215247 6.28977272727273  Z M 23.3408071748879 15.3579545454545  C 23.5650224215247 15.4488636363636  23.677130044843 15.6136363636364  23.677130044843 15.8522727272727  L 23.677130044843 19.0909090909091  C 23.677130044843 20.4431818181818  23.2034753363229 21.5994318181818  22.2561659192825 22.5596590909091  C 21.3088565022422 23.5198863636364  20.1681614349776 24  18.8340807174888 24  L 4.84304932735426 24  C 3.50896860986547 24  2.3682735426009 23.5198863636364  1.42096412556054 22.5596590909091  C 0.473654708520179 21.5994318181818  0 20.4431818181818  0 19.0909090909091  L 0 4.90909090909091  C 0 3.55681818181818  0.473654708520179 2.40056818181818  1.42096412556054 1.44034090909091  C 2.3682735426009 0.480113636363634  3.50896860986547 0  4.84304932735426 0  L 18.8340807174888 0  C 19.5403587443946 0  20.1961883408072 0.142045454545453  20.8015695067265 0.426136363636362  C 20.969730941704 0.505681818181817  21.0706278026906 0.636363636363636  21.1042600896861 0.818181818181817  C 21.1378923766816 1.01136363636364  21.0874439461883 1.17613636363636  20.9529147982063 1.3125  L 20.1289237668161 2.14772727272727  C 19.9719730941704 2.30681818181818  19.792600896861 2.35227272727273  19.5908071748879 2.28409090909091  C 19.3329596412556 2.21590909090909  19.0807174887892 2.18181818181818  18.8340807174888 2.18181818181818  L 4.84304932735426 2.18181818181818  C 4.10313901345291 2.18181818181818  3.46973094170404 2.44886363636363  2.94282511210762 2.98295454545455  C 2.41591928251121 3.51704545454545  2.152466367713 4.15909090909091  2.152466367713 4.90909090909091  L 2.152466367713 19.0909090909091  C 2.152466367713 19.8409090909091  2.41591928251121 20.4829545454545  2.94282511210762 21.0170454545455  C 3.46973094170404 21.5511363636364  4.10313901345291 21.8181818181818  4.84304932735426 21.8181818181818  L 18.8340807174888 21.8181818181818  C 19.5739910313901 21.8181818181818  20.207399103139 21.5511363636364  20.7343049327354 21.0170454545455  C 21.2612107623318 20.4829545454545  21.52466367713 19.8409090909091  21.52466367713 19.0909090909091  L 21.52466367713 16.9431818181818  C 21.52466367713 16.7954545454545  21.5751121076233 16.6704545454545  21.6760089686099 16.5681818181818  L 22.7522421524664 15.4772727272727  C 22.9204035874439 15.3068181818182  23.1165919282511 15.2670454545455  23.3408071748879 15.3579545454545  Z M 10.762331838565 14.7272727272727  L 22.0627802690583 3.27272727272727  L 26.9058295964126 8.18181818181818  L 15.6053811659193 19.6363636363636  L 10.762331838565 19.6363636363636  L 10.762331838565 14.7272727272727  Z M 30 4.36363636363636  C 30 4.81818181818182  29.8430493273543 5.20454545454545  29.5291479820628 5.52272727272727  L 27.9820627802691 7.09090909090909  L 23.1390134529148 2.18181818181818  L 24.6860986547085 0.613636363636362  C 25 0.295454545454543  25.3811659192825 0.136363636363638  25.8295964125561 0.136363636363638  C 26.2780269058296 0.136363636363638  26.6591928251121 0.295454545454543  26.9730941704036 0.613636363636362  L 29.5291479820628 3.20454545454546  C 29.8430493273543 3.52272727272727  30 3.90909090909091  30 4.36363636363636  Z " fill-rule="nonzero" fill="#409eff" stroke="none" transform="matrix(1 0 0 1 1021 291 )" />
  </g>
</svg>