<?xml version="1.0" encoding="utf-8"?>
<svg version="1.1" xmlns:xlink="http://www.w3.org/1999/xlink" width="24px" height="24px" xmlns="http://www.w3.org/2000/svg">
  <g transform="matrix(1 0 0 1 -945 -291 )">
    <path d="M 24 12  C 24 5.373  18.627 0  12 0  C 5.373 0  0 5.373  0 12  C 0 18.627  5.373 24  12 24  C 18.627 24  24 18.627  24 12  Z M 16.707 8.707  C 16.554 8.861  13.414 12  13.414 12  C 13.414 12  16.553 15.139  16.707 15.293  C 17.098 15.684  17.098 16.317  16.707 16.707  C 16.316 17.098  15.683 17.098  15.293 16.707  C 15.139 16.554  12 13.414  12 13.414  C 12 13.414  8.861 16.553  8.707 16.707  C 8.316 17.098  7.683 17.098  7.293 16.707  C 6.902 16.316  6.902 15.683  7.293 15.293  C 7.446 15.139  10.586 12  10.586 12  C 10.586 12  7.447 8.861  7.293 8.707  C 6.902 8.316  6.902 7.683  7.293 7.293  C 7.684 6.902  8.317 6.902  8.707 7.293  C 8.861 7.446  12 10.586  12 10.586  C 12 10.586  15.139 7.447  15.293 7.293  C 15.684 6.902  16.317 6.902  16.707 7.293  C 17.098 7.684  17.098 8.317  16.707 8.707  Z " fill-rule="nonzero" fill="#f59a23" stroke="none" transform="matrix(1 0 0 1 945 291 )" />
  </g>
</svg>