<?xml version="1.0" encoding="utf-8"?>
<svg version="1.1" xmlns:xlink="http://www.w3.org/1999/xlink" width="24px" height="24px" xmlns="http://www.w3.org/2000/svg">
  <g transform="matrix(1 0 0 1 -945 -883 )">
    <path d="M 23.1433351924149 0  C 23.3218070273285 0  23.4824316787507 0.049107142857145  23.6252091466815 0.14732142857143  C 23.9196876742889 0.361607142857143  24.0401561628556 0.647321428571428  23.9866146123815 1.00446428571429  L 20.5599553820413 21.5758928571429  C 20.5153374233129 21.8348214285714  20.372559955382 22.0357142857143  20.1316229782487 22.1785714285714  C 20.0066926938093 22.25  19.8683770217513 22.2857142857143  19.7166759620747 22.2857142857143  C 19.6185164528723 22.2857142857143  19.5114333519242 22.2633928571429  19.3954266592303 22.21875  L 13.3318460680424 19.7410714285714  L 10.0925822643614 23.6919642857143  C 9.93195761293921 23.8973214285714  9.71332961517011 24  9.4366982710541 24  C 9.32069157836029 24  9.22253206915784 23.9821428571429  9.14221974344674 23.9464285714286  C 8.97267150027886 23.8839285714286  8.83658672615728 23.7790178571429  8.73396542108199 23.6316964285714  C 8.63134411600669 23.484375  8.58003346346905 23.3214285714286  8.58003346346905 23.1428571428571  L 8.58003346346905 18.46875  L 20.1450083658673 4.28571428571429  L 5.83602900167317 16.6741071428571  L 0.548800892359175 14.5044642857143  C 0.218627997769102 14.3794642857143  0.0401561628555494 14.1339285714286  0.0133853876185165 13.7678571428571  C -0.00446179587283882 13.4107142857143  0.138315672058003 13.1473214285714  0.441717791411043 12.9776785714286  L 22.7150027886224 0.120535714285714  C 22.8488566648076 0.0401785714285703  22.9916341327384 0  23.1433351924149 0  Z " fill-rule="nonzero" fill="#03b615" stroke="none" fill-opacity="0.643137254901961" transform="matrix(1 0 0 1 945 883 )" />
  </g>
</svg>