<?xml version="1.0" encoding="utf-8"?>
<svg version="1.1" xmlns:xlink="http://www.w3.org/1999/xlink" width="80px" height="30px" xmlns="http://www.w3.org/2000/svg">
  <g transform="matrix(1 0 0 1 -1643 -407 )">
    <path d="M 1643.5 410  A 2.5 2.5 0 0 1 1646 407.5 L 1720 407.5  A 2.5 2.5 0 0 1 1722.5 410 L 1722.5 434  A 2.5 2.5 0 0 1 1720 436.5 L 1646 436.5  A 2.5 2.5 0 0 1 1643.5 434 L 1643.5 410  Z " fill-rule="nonzero" fill="#f0f7ff" stroke="none" />
    <path d="M 1643.5 410  A 2.5 2.5 0 0 1 1646 407.5 L 1720 407.5  A 2.5 2.5 0 0 1 1722.5 410 L 1722.5 434  A 2.5 2.5 0 0 1 1720 436.5 L 1646 436.5  A 2.5 2.5 0 0 1 1643.5 434 L 1643.5 410  Z " stroke-width="1" stroke="#409eff" fill="none" />
  </g>
</svg>