<?xml version="1.0" encoding="utf-8"?>
<svg version="1.1" xmlns:xlink="http://www.w3.org/1999/xlink" width="39px" height="43px" xmlns="http://www.w3.org/2000/svg">
  <g transform="matrix(1 0 0 1 -226 -235 )">
    <path d="M 226 235  L 265 235  L 265 278  L 226 278  L 226 235  " fill-rule="nonzero" fill="#cccccc" stroke="none" />
    <path d="M 229 238  L 262 238  L 262 275  L 229 275  L 229 238  " fill-rule="nonzero" fill="#ffffff" stroke="none" />
    <path d="M 249.205 247.3  C 247.567 247.3  246.28 246.013  246.28 244.375  C 246.28 242.737  247.567 241.45  249.205 241.45  C 250.843 241.45  252.13 242.737  252.13 244.375  C 252.13 246.013  250.843 247.3  249.205 247.3  " fill-rule="nonzero" fill="#cccccc" stroke="none" />
    <path d="M 230 274  L 230 254.75  L 237.75 246  L 248.6 253  L 254.8 251.25  L 261 253  L 261 274  L 230 274  " fill-rule="nonzero" fill="#169bd5" stroke="none" />
  </g>
</svg>