<?xml version="1.0" encoding="utf-8"?>
<svg version="1.1" xmlns:xlink="http://www.w3.org/1999/xlink" width="40px" height="42px" xmlns="http://www.w3.org/2000/svg">
  <g transform="matrix(1 0 0 1 -1435 -1030 )">
    <path d="M 1435 1030  L 1475 1030  L 1475 1072  L 1435 1072  L 1435 1030  " fill-rule="nonzero" fill="#cccccc" stroke="none" />
    <path d="M 1438 1033  L 1472 1033  L 1472 1069  L 1438 1069  L 1438 1033  " fill-rule="nonzero" fill="#ffffff" stroke="none" />
    <path d="M 1458.8 1042.3  C 1457.12 1042.3  1455.8 1040.98  1455.8 1039.3  C 1455.8 1037.62  1457.12 1036.3  1458.8 1036.3  C 1460.48 1036.3  1461.8 1037.62  1461.8 1039.3  C 1461.8 1040.98  1460.48 1042.3  1458.8 1042.3  " fill-rule="nonzero" fill="#cccccc" stroke="none" />
    <path d="M 1439 1068  L 1439 1049.3  L 1447 1040.8  L 1458.2 1047.6  L 1464.6 1045.9  L 1471 1047.6  L 1471 1068  L 1439 1068  " fill-rule="nonzero" fill="#169bd5" stroke="none" />
  </g>
</svg>