<?xml version="1.0" encoding="utf-8"?>
<svg version="1.1" xmlns:xlink="http://www.w3.org/1999/xlink" width="7px" height="12px" xmlns="http://www.w3.org/2000/svg">
  <g transform="matrix(1 0 0 1 -224 -321 )">
    <path d="M 6.87972508591065 0.721442885771542  C 6.95990836197022 0.801603206412824  7 0.893787575150299  7 0.997995991983968  C 7 1.10220440881763  6.95990836197022 1.19438877755511  6.87972508591065 1.27454909819639  L 2.15292096219931 6  L 6.87972508591065 10.7254509018036  C 6.95990836197022 10.8056112224449  7 10.8977955911824  7 11.002004008016  C 7 11.1062124248497  6.95990836197022 11.1983967935872  6.87972508591065 11.2785571142285  L 6.27835051546392 11.8797595190381  C 6.19816723940435 11.9599198396794  6.10595647193585 12  6.00171821305842 12  C 5.89747995418099 12  5.80526918671249 11.9599198396794  5.72508591065292 11.8797595190381  L 0.120274914089347 6.27655310621242  C 0.0400916380297824 6.19639278557114  0 6.10420841683367  0 6  C 0 5.89579158316633  0.0400916380297824 5.80360721442886  0.120274914089347 5.72344689378758  L 5.72508591065292 0.120240480961924  C 5.80526918671249 0.0400801603206409  5.89747995418099 0  6.00171821305842 0  C 6.10595647193585 0  6.19816723940435 0.0400801603206409  6.27835051546392 0.120240480961924  L 6.87972508591065 0.721442885771542  Z " fill-rule="nonzero" fill="#000000" stroke="none" transform="matrix(1 0 0 1 224 321 )" />
  </g>
</svg>