<?xml version="1.0" encoding="utf-8"?>
<svg version="1.1" xmlns:xlink="http://www.w3.org/1999/xlink" width="77px" height="66px" xmlns="http://www.w3.org/2000/svg">
  <g transform="matrix(1 0 0 1 -251 -813 )">
    <path d="M 252 817  A 3 3 0 0 1 255 814 L 324 814  A 3 3 0 0 1 327 817 L 327 875  A 3 3 0 0 1 324 878 L 255 878  A 3 3 0 0 1 252 875 L 252 817  Z " fill-rule="nonzero" fill="#ffffff" stroke="none" />
    <path d="M 251.5 817  A 3.5 3.5 0 0 1 255 813.5 L 324 813.5  A 3.5 3.5 0 0 1 327.5 817 L 327.5 875  A 3.5 3.5 0 0 1 324 878.5 L 255 878.5  A 3.5 3.5 0 0 1 251.5 875 L 251.5 817  Z " stroke-width="1" stroke-dasharray="3,1" stroke="#40a9ff" fill="none" stroke-dashoffset="0.5" />
  </g>
</svg>