<?xml version="1.0" encoding="utf-8"?>
<svg version="1.1" xmlns:xlink="http://www.w3.org/1999/xlink" width="30px" height="30px" xmlns="http://www.w3.org/2000/svg">
  <g transform="matrix(1 0 0 1 -1156 -737 )">
    <path d="M 12.5 23.2421875  C 12.8385416666667 23.2421875  13.1315104166667 23.1184895833333  13.37890625 22.87109375  L 25.37109375 10.87890625  C 25.6184895833333 10.6315104166667  25.7421875 10.3385416666667  25.7421875 10  C 25.7421875 9.66145833333333  25.6184895833333 9.36848958333333  25.37109375 9.12109375  L 23.37890625 7.12890625  C 23.1315104166667 6.88151041666666  22.8385416666667 6.7578125  22.5 6.7578125  C 22.1614583333333 6.7578125  21.8684895833333 6.88151041666666  21.62109375 7.12890625  L 12.5 16.25  L 8.37890625 12.12890625  C 8.13151041666667 11.8815104166667  7.83854166666667 11.7578125  7.5 11.7578125  C 7.16145833333333 11.7578125  6.86848958333333 11.8815104166667  6.62109375 12.12890625  L 4.62890625 14.12109375  C 4.38151041666667 14.3684895833333  4.2578125 14.6614583333333  4.2578125 15  C 4.2578125 15.3385416666667  4.38151041666667 15.6315104166667  4.62890625 15.87890625  L 11.62109375 22.87109375  C 11.8684895833333 23.1184895833333  12.1614583333333 23.2421875  12.5 23.2421875  Z M 28.349609375 1.650390625  C 29.4498697916667 2.75065104166666  30 4.07552083333333  30 5.625  L 30 24.375  C 30 25.9244791666667  29.4498697916667 27.2493489583333  28.349609375 28.349609375  C 27.2493489583333 29.4498697916667  25.9244791666667 30  24.375 30  L 5.625 30  C 4.07552083333333 30  2.75065104166667 29.4498697916667  1.650390625 28.349609375  C 0.550130208333333 27.2493489583333  0 25.9244791666667  0 24.375  L 0 5.625  C 0 4.07552083333333  0.550130208333333 2.75065104166666  1.650390625 1.650390625  C 2.75065104166667 0.550130208333331  4.07552083333333 0  5.625 0  L 24.375 0  C 25.9244791666667 0  27.2493489583333 0.550130208333331  28.349609375 1.650390625  Z " fill-rule="nonzero" fill="#000000" stroke="none" transform="matrix(1 0 0 1 1156 737 )" />
  </g>
</svg>